<svg width="282" height="399" viewBox="0 0 282 399" fill="none" xmlns="http://www.w3.org/2000/svg">
<g opacity="0.5" filter="url(#filter0_d_1_1981)">
<path opacity="0.5" d="M112.624 274.613C115.612 274.008 118.673 273.842 121.709 274.119C121.99 274.117 122.259 274.005 122.458 273.806C122.657 273.607 122.77 273.337 122.772 273.056C122.766 272.776 122.652 272.509 122.454 272.31C122.256 272.112 121.989 271.998 121.709 271.993C118.482 271.713 115.231 271.904 112.059 272.562C111.787 272.637 111.557 272.817 111.418 273.063C111.279 273.308 111.243 273.598 111.318 273.87C111.393 274.142 111.572 274.373 111.817 274.512C112.062 274.651 112.352 274.688 112.624 274.613H112.624Z" fill="#A0ABB8"/>
<path d="M39.6868 256.115C33.8443 248.336 30.4674 239.638 30.3567 229.721C30.1685 229.187 30.1997 228.6 30.4436 228.088C30.6875 227.577 31.124 227.183 31.6575 226.994L51.572 219.941C52.1059 219.752 52.6927 219.784 53.2036 220.028C53.7145 220.272 54.1079 220.709 54.2973 221.243L63.6274 247.636C63.8157 248.17 63.7844 248.758 63.5406 249.269C63.2967 249.781 62.8602 250.174 62.3267 250.364L42.4122 257.417C41.8782 257.605 41.2914 257.574 40.7805 257.33C40.2696 257.086 39.8763 256.649 39.6868 256.115Z" fill="#F2F2F2"/>
<path opacity="0.2" d="M44.1829 255.644C43.649 255.833 43.0622 255.801 42.5513 255.557C42.0403 255.313 41.647 254.876 41.4576 254.342C35.615 246.564 32.2381 237.866 32.1274 227.949C32.0056 227.597 31.9787 227.22 32.0494 226.855L31.6575 226.994C31.124 227.183 30.6875 227.577 30.4436 228.088C30.1998 228.6 30.1685 229.187 30.3567 229.721C30.4674 239.638 33.8443 248.336 39.6868 256.115C39.8763 256.649 40.2696 257.086 40.7805 257.33C41.2914 257.574 41.8782 257.605 42.4121 257.417L62.3266 250.364C62.6799 250.237 62.9936 250.02 63.2357 249.733C63.4779 249.446 63.6399 249.1 63.7055 248.73L44.1829 255.644Z" fill="#05264E"/>
<path d="M53.5127 235.889L40.1807 240.653C39.9685 240.728 39.735 240.717 39.5314 240.62C39.3278 240.524 39.1709 240.35 39.0952 240.138C39.0195 239.925 39.0311 239.692 39.1276 239.488C39.2241 239.284 39.3974 239.127 39.6096 239.051L52.9416 234.288C53.1536 234.213 53.3867 234.225 53.5898 234.322C53.7929 234.418 53.9494 234.592 54.025 234.804C54.1006 235.016 54.0891 235.249 53.993 235.453C53.897 235.656 53.7242 235.813 53.5126 235.889H53.5127Z" fill="white"/>
<path d="M41.5479 235.214L38.6149 236.262C38.5099 236.3 38.3985 236.317 38.287 236.312C38.1754 236.306 38.066 236.279 37.965 236.232C37.8639 236.184 37.7732 236.118 37.698 236.035C37.6228 235.952 37.5646 235.856 37.5268 235.751C37.4889 235.646 37.4721 235.534 37.4774 235.422C37.4826 235.311 37.5098 235.201 37.5574 235.1C37.6049 234.999 37.6719 234.908 37.7545 234.833C37.8371 234.758 37.9337 234.7 38.0388 234.662L38.0438 234.66L40.9769 233.613C41.1888 233.538 41.4218 233.55 41.6248 233.646C41.8278 233.743 41.9843 233.916 42.0598 234.128C42.1354 234.34 42.124 234.573 42.028 234.777C41.932 234.98 41.7594 235.138 41.5479 235.214Z" fill="white"/>
<path d="M56.0232 242.929L42.6913 247.692C42.4793 247.767 42.2463 247.755 42.0433 247.658C41.8403 247.562 41.6838 247.389 41.6083 247.177C41.5327 246.965 41.5441 246.731 41.6401 246.528C41.7361 246.324 41.9087 246.167 42.1202 246.091L55.4522 241.328C55.664 241.252 55.8974 241.263 56.101 241.359C56.3047 241.455 56.4619 241.628 56.5383 241.84C56.6146 242.052 56.6038 242.285 56.5082 242.489C56.4125 242.693 56.24 242.851 56.0283 242.927L56.0232 242.929Z" fill="white"/>
<path d="M54.7679 239.409L41.4359 244.172C41.2239 244.249 40.9903 244.237 40.7866 244.141C40.5829 244.045 40.4258 243.871 40.3498 243.659C40.2738 243.447 40.2852 243.213 40.3814 243.009C40.4777 242.805 40.6508 242.648 40.8629 242.572L40.8648 242.571L54.1968 237.808C54.4088 237.733 54.6419 237.745 54.845 237.842C55.0481 237.938 55.2046 238.112 55.2802 238.324C55.3558 238.536 55.3443 238.769 55.2483 238.972C55.1522 239.176 54.9795 239.333 54.7679 239.409H54.7679Z" fill="white"/>
<path d="M41.0845 227.266C43.0404 227.266 44.626 225.679 44.626 223.722C44.626 221.764 43.0404 220.177 41.0845 220.177C39.1287 220.177 37.5431 221.764 37.5431 223.722C37.5431 225.679 39.1287 227.266 41.0845 227.266Z" fill="#A0ABB8"/>
<path d="M170.702 70.6189C170.759 75.8083 172.409 86.6125 171.226 91.6957L171.035 91.2703C170.052 92.0505 169.007 92.7499 167.911 93.3617C167.121 91.4375 165.939 89.6991 164.441 88.2573C164.638 90.6428 164.356 93.0436 163.612 95.3184C159.185 96.9135 151.415 91.8871 146.599 91.7808C138.85 91.6035 131.3 89.6752 123.898 87.6334C121.27 86.9103 118.38 85.9674 117.19 83.7839C116.001 81.6004 118.13 79.2435 117.991 76.7796C116.998 59.2292 125.35 56.2875 133.297 51.598C135.046 50.566 135.904 48.3439 137.88 47.479C140.621 46.2809 143.886 46.8551 146.868 47.4577C146.127 47.2135 145.462 46.7826 144.936 46.2065C144.41 45.6304 144.041 44.9284 143.865 44.1682C143.74 43.4231 143.824 42.6581 144.107 41.9576C144.389 41.257 144.859 40.6482 145.465 40.1982C147.109 38.9292 149.559 38.7732 151.656 39.312C153.681 39.946 155.597 40.8881 157.336 42.1052C158.517 42.7536 159.573 43.6083 160.453 44.6291C160.868 45.1121 161.125 45.7103 161.191 46.3438C161.257 46.9772 161.128 47.6157 160.821 48.1738C160.443 48.6522 159.962 49.039 159.414 49.3054C158.866 49.5717 158.265 49.7108 157.655 49.7122C156.716 49.7395 155.778 49.6418 154.865 49.4215C159.051 50.4551 162.823 52.7399 165.68 55.9721C169.229 60.1053 170.638 65.4294 170.702 70.6189Z" fill="#05264E"/>
<path d="M46.8929 120.631C47.6131 122.161 48.9014 123.349 50.4836 123.943C52.0659 124.537 53.8172 124.489 55.3649 123.81C55.6773 123.667 55.9774 123.499 56.262 123.306L74.4998 136.718L84.555 129.85L57.5869 114.181C56.6981 113.061 55.4639 112.268 54.0771 111.924C52.6903 111.581 51.2288 111.706 49.9208 112.281C49.1796 112.616 48.5115 113.093 47.9546 113.686C47.3977 114.278 46.9629 114.975 46.6751 115.736C46.3872 116.497 46.252 117.308 46.277 118.121C46.302 118.934 46.4869 119.735 46.821 120.477C46.8442 120.528 46.8682 120.58 46.8929 120.631Z" fill="#FFB6B6"/>
<path d="M234.866 108.459C233.189 108.668 231.66 109.524 230.604 110.845C229.548 112.165 229.048 113.846 229.212 115.529C229.25 115.871 229.317 116.209 229.411 116.539L211.003 129.716L214.396 141.418L237.664 120.638C239.003 120.141 240.141 119.214 240.898 118.002C241.656 116.789 241.991 115.36 241.852 113.937C241.765 113.128 241.52 112.344 241.13 111.63C240.741 110.915 240.214 110.285 239.581 109.775C238.948 109.264 238.221 108.883 237.441 108.654C236.661 108.425 235.843 108.352 235.035 108.439C234.978 108.445 234.922 108.452 234.866 108.459Z" fill="#FFB6B6"/>
<path d="M101.38 378.505L95.4511 378.455L92.8276 355.036L101.576 355.109L101.38 378.505Z" fill="#FFB6B6"/>
<path d="M82.3916 387.94C82.3863 388.643 82.66 389.32 83.1526 389.822C83.6452 390.323 84.3164 390.609 85.0192 390.616L96.8052 390.714L98.8685 386.528L99.6263 390.736L104.073 390.776L102.951 375.77L101.403 375.667L95.0924 375.231L93.0564 375.095L93.0207 379.341L83.5529 385.768C83.1983 386.009 82.9073 386.333 82.705 386.711C82.5027 387.089 82.3951 387.511 82.3916 387.94Z" fill="#05264E"/>
<path d="M179.521 352.22L174.681 355.645L158.881 338.174L166.024 333.117L179.521 352.22Z" fill="#FFB6B6"/>
<path d="M169.619 370.981C170.026 371.555 170.643 371.944 171.335 372.063C172.028 372.182 172.739 372.021 173.314 371.616L182.936 364.803L182.167 360.199L185.238 363.17L188.871 360.602L179.199 349.08L177.884 349.902L172.508 353.239L170.776 354.319L173.225 357.786L169.294 368.539C169.147 368.942 169.099 369.375 169.156 369.8C169.213 370.225 169.372 370.63 169.619 370.981Z" fill="#05264E"/>
<path d="M105.825 188.631L123.045 148.608H162.706L151.267 190.377L105.825 188.631Z" fill="#FFB6B6"/>
<path d="M69.4178 378.685C69.0885 378.7 68.7626 378.613 68.4842 378.437C68.2057 378.26 67.9881 378.002 67.861 377.698C67.7339 377.394 67.7033 377.058 67.7734 376.735C67.8434 376.413 68.0108 376.12 68.2528 375.896L68.363 375.458C68.3485 375.423 68.3339 375.388 68.3192 375.353C67.9875 374.568 67.4318 373.9 66.7217 373.431C66.0117 372.962 65.179 372.713 64.3283 372.717C63.4776 372.72 62.6467 372.974 61.9402 373.449C61.2336 373.923 60.6829 374.596 60.357 375.382C59.0548 378.521 57.3968 381.666 56.9885 384.986C56.8087 386.453 56.8846 387.94 57.2127 389.381C54.1541 382.703 52.5658 375.445 52.5556 368.098C52.5549 366.255 52.6573 364.413 52.8621 362.581C53.0314 361.079 53.2662 359.587 53.5667 358.107C55.206 350.074 58.7258 342.544 63.837 336.137C66.3108 334.786 68.3114 332.709 69.5692 330.184C70.0248 329.277 70.3469 328.309 70.5253 327.309C70.2462 327.345 69.4731 323.092 69.6836 322.831C69.2947 322.24 68.5986 321.946 68.1739 321.37C66.0615 318.503 63.1513 319.004 61.632 322.899C58.3864 324.539 58.355 327.258 60.3464 329.873C61.6134 331.537 61.7875 333.788 62.8992 335.569C62.7848 335.716 62.6658 335.858 62.5515 336.004C60.4608 338.695 58.6386 341.585 57.1111 344.631C57.4825 341.218 57.0392 337.765 55.8174 334.557C54.5792 331.568 52.2583 329.05 50.2145 326.465C49.674 325.77 48.9399 325.252 48.1051 324.975C47.2702 324.698 46.3722 324.676 45.5243 324.91C44.6765 325.143 43.917 325.624 43.3419 326.29C42.7667 326.956 42.4017 327.777 42.293 328.651C42.2888 328.689 42.2847 328.727 42.2807 328.765C42.5843 328.936 42.8815 329.118 43.1722 329.311C43.5375 329.555 43.8205 329.904 43.9842 330.312C44.1479 330.72 44.1847 331.168 44.0896 331.597C43.9946 332.027 43.7723 332.417 43.4517 332.718C43.1312 333.018 42.7273 333.215 42.2932 333.282L42.2487 333.289C42.3569 334.384 42.548 335.469 42.8206 336.535C40.1986 346.685 45.8592 350.381 53.9418 350.547C54.1202 350.639 54.2941 350.73 54.4725 350.817C52.9377 355.17 51.9751 359.705 51.6087 364.307C51.4012 367.022 51.4135 369.749 51.6453 372.462L51.6315 372.366C51.0459 369.349 49.4381 366.627 47.0796 364.659C43.5767 361.779 38.6277 360.719 34.8487 358.404C34.4471 358.145 33.9801 358.008 33.5028 358.006C33.0255 358.005 32.5578 358.141 32.155 358.397C31.7521 358.653 31.4308 359.019 31.229 359.452C31.0272 359.885 30.9533 360.367 31.0159 360.84L31.0314 360.941C31.5947 361.171 32.1432 361.436 32.6737 361.733C32.9773 361.905 33.2744 362.087 33.5652 362.279C33.9305 362.524 34.2135 362.872 34.3772 363.281C34.5409 363.689 34.5776 364.137 34.4826 364.566C34.3876 364.995 34.1652 365.386 33.8447 365.686C33.5241 365.987 33.1203 366.184 32.6861 366.251L32.6417 366.257C32.6097 366.262 32.5822 366.267 32.5502 366.271C33.5128 368.572 34.8637 370.689 36.5439 372.531C38.1834 381.39 45.2248 382.231 52.7569 379.651H52.7615C53.5879 383.245 54.7852 386.744 56.3343 390.091H69.0979C69.1437 389.949 69.1848 389.802 69.226 389.66C68.0446 389.735 66.8585 389.664 65.6943 389.45C66.6413 388.287 67.5882 387.115 68.5352 385.952C68.5564 385.93 68.5762 385.907 68.5947 385.883C69.0751 385.288 69.56 384.697 70.0404 384.102L70.0406 384.101C70.0662 382.276 69.857 380.456 69.4182 378.685L69.4178 378.685Z" fill="#F2F2F2"/>
<path d="M207.531 378.685C207.861 378.7 208.187 378.613 208.465 378.437C208.743 378.26 208.961 378.002 209.088 377.698C209.215 377.394 209.246 377.058 209.176 376.735C209.106 376.413 208.938 376.12 208.696 375.896L208.586 375.458C208.601 375.423 208.615 375.388 208.63 375.353C208.962 374.568 209.517 373.9 210.227 373.431C210.937 372.962 211.77 372.713 212.621 372.717C213.472 372.72 214.302 372.974 215.009 373.449C215.715 373.923 216.266 374.596 216.592 375.382C217.894 378.521 219.552 381.666 219.961 384.986C220.14 386.453 220.065 387.94 219.736 389.381C222.795 382.703 224.383 375.445 224.394 368.098C224.394 366.255 224.292 364.413 224.087 362.581C223.918 361.079 223.683 359.587 223.382 358.107C221.743 350.074 218.223 342.544 213.112 336.137C210.638 334.786 208.638 332.709 207.38 330.184C206.924 329.277 206.602 328.309 206.424 327.309C206.703 327.346 207.476 323.092 207.266 322.831C207.654 322.24 208.351 321.946 208.775 321.37C210.888 318.503 213.798 319.004 215.317 322.899C218.563 324.539 218.594 327.258 216.603 329.873C215.336 331.537 215.162 333.788 214.05 335.569C214.164 335.716 214.283 335.858 214.398 336.004C216.488 338.695 218.311 341.585 219.838 344.631C219.467 341.218 219.91 337.765 221.132 334.557C222.37 331.568 224.691 329.05 226.735 326.465C227.275 325.771 228.009 325.252 228.844 324.975C229.679 324.699 230.577 324.676 231.425 324.91C232.273 325.144 233.032 325.624 233.607 326.29C234.182 326.956 234.547 327.777 234.656 328.651C234.66 328.689 234.664 328.727 234.668 328.765C234.365 328.936 234.068 329.118 233.777 329.311C233.412 329.555 233.129 329.904 232.965 330.312C232.801 330.72 232.764 331.168 232.859 331.597C232.954 332.027 233.177 332.417 233.497 332.718C233.818 333.018 234.222 333.215 234.656 333.282L234.7 333.289C234.592 334.384 234.401 335.469 234.129 336.535C236.75 346.685 231.09 350.381 223.007 350.547C222.829 350.639 222.655 350.73 222.477 350.817C224.011 355.171 224.974 359.705 225.34 364.307C225.548 367.022 225.536 369.749 225.304 372.462L225.318 372.366C225.903 369.349 227.511 366.627 229.869 364.659C233.372 361.779 238.321 360.719 242.1 358.404C242.502 358.145 242.969 358.008 243.446 358.006C243.924 358.005 244.391 358.141 244.794 358.397C245.197 358.653 245.518 359.019 245.72 359.452C245.922 359.885 245.996 360.367 245.933 360.84L245.918 360.941C245.354 361.171 244.806 361.435 244.275 361.733C243.972 361.905 243.675 362.087 243.384 362.279C243.019 362.523 242.736 362.872 242.572 363.281C242.408 363.689 242.371 364.137 242.466 364.566C242.561 364.995 242.784 365.386 243.104 365.686C243.425 365.987 243.829 366.184 244.263 366.251L244.307 366.257C244.339 366.262 244.367 366.267 244.399 366.271C243.436 368.572 242.085 370.689 240.405 372.531C238.766 381.39 231.724 382.231 224.192 379.651H224.188C223.361 383.245 222.164 386.744 220.615 390.091H207.851C207.805 389.949 207.764 389.802 207.723 389.66C208.904 389.735 210.091 389.664 211.255 389.45C210.308 388.287 209.361 387.115 208.414 385.952C208.393 385.93 208.373 385.907 208.354 385.883C207.874 385.288 207.389 384.697 206.909 384.102L206.908 384.101C206.883 382.276 207.092 380.456 207.531 378.685L207.531 378.685Z" fill="#F2F2F2"/>
<path d="M105.826 185.625L88.7299 221.322L89.9501 363.576H104.593C104.593 363.576 107.44 359.733 107.44 357.04C107.44 354.347 102.597 353.956 105.826 350.651C109.054 347.345 110.131 346.268 110.131 343.036V291.338L121.676 241.221L120.456 296.288L161.944 345.849L171.609 336.175C171.609 336.175 174.435 334.929 171.609 332.25C168.782 329.572 167.02 334.302 166.825 326.821C166.63 319.339 168.244 320.955 166.63 319.339C165.016 317.723 142.42 290.725 142.42 290.725C142.42 290.725 162.863 203.543 152.64 186.847L105.826 185.625Z" fill="#05264E"/>
<path d="M153.716 189.54C153.716 189.54 109.592 173.921 112.821 165.304C116.05 156.687 121.473 158.345 114.995 155.631C108.516 152.917 104.224 152.378 108.254 148.608C112.283 144.838 118.202 141.068 118.202 137.298C118.202 133.528 123.045 103.905 123.045 103.905H130.797L138.649 90.4409H149.742L155.33 102.828H167.13L167.706 121.679C167.706 121.679 168.469 158.095 164.859 159.545C161.249 160.995 158.021 160.995 161.249 164.227C164.478 167.458 166.317 169.129 164.859 172.064C163.401 174.998 153.716 189.54 153.716 189.54Z" fill="#EFF2FB"/>
<path d="M160.173 108.214L167.13 102.828C167.13 102.828 179.006 102.828 180.62 109.291C182.235 115.754 191.951 131.559 191.951 131.559C191.951 131.559 201.606 125.987 205.372 125.987C209.139 125.987 211.829 128.68 211.829 125.449C211.829 122.217 209.677 121.679 212.906 121.679C216.134 121.679 224.744 118.447 224.744 118.447L233.927 127.639C233.927 127.639 232.815 136.22 229.048 135.682C225.282 135.143 223.129 132.45 223.129 135.682C223.129 138.913 225.282 143.761 220.439 144.299C215.596 144.838 183.311 152.917 183.311 152.917L161.249 120.602L160.173 108.214Z" fill="#EFF2FB"/>
<path d="M132.192 108.214L125.235 102.828C125.235 102.828 113.359 102.828 111.745 109.291C110.13 115.754 99.8727 131.559 99.8727 131.559C99.8727 131.559 90.7593 125.987 86.9927 125.987C83.226 125.987 80.5356 128.68 80.5356 125.449C80.5356 122.217 82.688 121.679 79.4594 121.679C76.2309 121.679 67.6214 118.447 67.6214 118.447L58.4379 127.639C58.4379 127.639 59.5501 136.22 63.3167 135.682C67.0833 135.143 69.2357 132.45 69.2357 135.682C69.2357 138.913 67.0833 143.761 71.9261 144.299C76.769 144.838 109.054 152.917 109.054 152.917L131.116 120.602L132.192 108.214Z" fill="#EFF2FB"/>
<path d="M142.906 87.5158C152.39 87.5158 160.078 79.8206 160.078 70.3281C160.078 60.8357 152.39 53.1405 142.906 53.1405C133.422 53.1405 125.734 60.8357 125.734 70.3281C125.734 79.8206 133.422 87.5158 142.906 87.5158Z" fill="#FFB6B6"/>
<path d="M161.643 67.7334C159.624 70.1793 156.621 70.0517 153.951 69.6618C153.108 69.5412 152.265 69.4065 151.422 69.2506C151.273 68.7756 151.103 68.3006 150.912 67.8398C150.122 65.9156 148.94 64.1772 147.442 62.7354C147.599 64.6204 147.454 66.5186 147.01 68.3573C145.444 67.9957 143.886 67.5916 142.335 67.145C140.962 66.9217 139.728 66.1791 138.887 65.0708C138.046 63.9625 137.663 62.5732 137.816 61.1899C135.585 62.8914 133.155 64.3659 130.605 64.3943C129.168 64.357 127.781 63.8598 126.646 62.9757C125.512 62.0915 124.69 60.8669 124.302 59.4813C123.608 57.3545 123.714 54.9016 123.997 52.6046C124.337 49.8752 125.102 46.8764 126.944 45.7775C128.424 44.8842 130.131 45.5223 131.654 46.2454C135.009 47.857 138.189 49.8098 141.145 52.0729L141.18 52.8173C141.945 49.1521 144.474 46.3234 147.229 46.0398C149.085 45.8555 150.898 46.7133 152.648 47.5782C154.934 48.5879 157.06 49.9279 158.958 51.5554C161.103 53.5076 162.592 56.0753 163.222 58.9071C163.881 61.9768 163.385 65.6208 161.643 67.7334Z" fill="#05264E"/>
<path d="M144.644 43.8805C144.82 43.8953 144.388 43.7959 144.528 43.855C144.46 43.8235 144.393 43.7864 144.33 43.7441C144.32 43.7372 144.18 43.6243 144.271 43.7029C144.061 43.5392 143.903 43.3182 143.816 43.0665C143.621 42.4548 143.53 41.8146 143.547 41.1728C143.582 40.3292 143.438 39.4878 143.125 38.7038C143.033 38.4915 142.891 38.304 142.713 38.1567C142.534 38.0094 142.323 37.9063 142.097 37.8559C141.871 37.8055 141.636 37.8091 141.412 37.8664C141.188 37.9238 140.98 38.0333 140.806 38.186C140.226 38.7549 140.18 39.7159 140.139 40.4803C140.095 41.2738 140.179 42.0693 140.388 42.8361C140.747 44.0969 141.466 45.2258 142.455 46.0852C143.597 47.0867 145.032 47.6928 146.546 47.8138C146.754 47.8091 146.956 47.744 147.127 47.6264C147.299 47.5087 147.433 47.3437 147.513 47.1513C147.592 46.9589 147.614 46.7474 147.576 46.5427C147.538 46.338 147.441 46.1489 147.297 45.9984L145.396 44.1919C145.196 43.9925 144.926 43.8804 144.644 43.8804C144.363 43.8804 144.092 43.9925 143.893 44.1919C143.694 44.3913 143.582 44.6618 143.582 44.9439C143.582 45.2259 143.694 45.4964 143.893 45.6958L145.794 47.5023L146.546 45.6869C146.232 45.6587 145.922 45.5953 145.622 45.4982C145.297 45.4078 144.987 45.2716 144.7 45.0937C144.419 44.9397 144.156 44.7554 143.915 44.5443C143.761 44.4087 143.614 44.2652 143.474 44.1146C143.423 44.0599 143.374 44.0043 143.325 43.9476C143.328 43.9517 143.125 43.696 143.212 43.8129C142.993 43.5121 142.801 43.1913 142.641 42.8549C142.585 42.7358 142.538 42.6122 142.502 42.4854C142.434 42.2769 142.379 42.0646 142.337 41.8497C142.256 41.398 142.231 40.938 142.264 40.4803C142.273 40.2862 142.293 40.0927 142.322 39.9006C142.349 39.7993 142.369 39.6963 142.381 39.5923C142.385 39.3341 142.346 39.7302 142.212 39.7903L141.675 39.9355C141.588 39.9284 141.503 39.9017 141.428 39.8574C141.352 39.8131 141.288 39.7523 141.239 39.6795C141.216 39.5908 141.223 39.6065 141.258 39.7268C141.298 39.8679 141.329 40.0115 141.351 40.1566C141.392 40.4939 141.416 40.8331 141.422 41.1728C141.429 41.8925 141.513 42.6095 141.671 43.3115C141.82 44.0169 142.188 44.6573 142.722 45.1414C143.255 45.6254 143.928 45.9285 144.644 46.0073C144.925 46.0051 145.194 45.8923 145.393 45.6934C145.592 45.4944 145.705 45.2252 145.707 44.9439C145.701 44.6636 145.587 44.3964 145.389 44.1981C145.191 43.9999 144.924 43.8861 144.644 43.8805Z" fill="#05264E"/>
<path d="M232.342 112.908C226.5 105.13 223.123 96.4319 223.012 86.5152C222.824 85.9808 222.855 85.3934 223.099 84.882C223.343 84.3707 223.779 83.977 224.313 83.7874L244.227 76.7346C244.761 76.5462 245.348 76.5775 245.859 76.8215C246.37 77.0656 246.763 77.5026 246.953 78.0366L256.283 104.43C256.471 104.964 256.44 105.552 256.196 106.063C255.952 106.574 255.515 106.968 254.982 107.158L235.067 114.21C234.533 114.399 233.947 114.368 233.436 114.123C232.925 113.879 232.532 113.442 232.342 112.908Z" fill="#3C65F5"/>
<path opacity="0.2" d="M236.838 112.438C236.304 112.626 235.717 112.595 235.207 112.351C234.696 112.107 234.302 111.67 234.113 111.136C228.27 103.358 224.893 94.6595 224.783 84.7428C224.661 84.3913 224.634 84.0139 224.705 83.6486L224.313 83.7874C223.779 83.977 223.343 84.3707 223.099 84.8821C222.855 85.3934 222.824 85.9808 223.012 86.5152C223.123 96.4319 226.5 105.13 232.342 112.908C232.532 113.442 232.925 113.879 233.436 114.123C233.947 114.368 234.534 114.399 235.067 114.21L254.982 107.158C255.335 107.031 255.649 106.814 255.891 106.527C256.133 106.24 256.295 105.894 256.361 105.524L236.838 112.438Z" fill="#05264E"/>
<path d="M246.168 92.6832L232.836 97.4465C232.624 97.5223 232.39 97.5106 232.187 97.4141C231.983 97.3175 231.826 97.144 231.751 96.9316C231.675 96.7193 231.687 96.4855 231.783 96.2818C231.879 96.078 232.053 95.921 232.265 95.8452L245.597 91.0819C245.702 91.0444 245.813 91.0279 245.925 91.0335C246.036 91.0391 246.145 91.0665 246.246 91.1143C246.347 91.1622 246.437 91.2294 246.512 91.3121C246.587 91.3949 246.645 91.4916 246.682 91.5968C246.72 91.7019 246.736 91.8134 246.731 91.9249C246.725 92.0364 246.698 92.1458 246.65 92.2466C246.602 92.3475 246.535 92.438 246.452 92.5129C246.37 92.5878 246.273 92.6457 246.168 92.6832Z" fill="white"/>
<path d="M234.203 92.0077L231.27 93.0556C231.165 93.0933 231.054 93.1098 230.942 93.1044C230.831 93.099 230.722 93.0717 230.621 93.024C230.52 92.9763 230.429 92.9092 230.355 92.8265C230.28 92.7438 230.222 92.6471 230.184 92.542C230.146 92.4369 230.13 92.3255 230.135 92.2139C230.141 92.1024 230.168 91.9931 230.216 91.8921C230.263 91.7912 230.33 91.7006 230.413 91.6256C230.496 91.5506 230.592 91.4926 230.697 91.455L230.699 91.4543L233.632 90.4064C233.844 90.3309 234.078 90.3427 234.281 90.4393C234.484 90.5359 234.641 90.7093 234.717 90.9215C234.792 91.1337 234.781 91.3673 234.684 91.571C234.588 91.7746 234.415 91.9317 234.203 92.0077Z" fill="white"/>
<path d="M248.679 99.723L235.347 104.486C235.134 104.562 234.901 104.551 234.697 104.455C234.494 104.358 234.336 104.185 234.26 103.973C234.184 103.76 234.196 103.527 234.292 103.323C234.388 103.119 234.561 102.962 234.774 102.886L234.775 102.885L248.107 98.1217C248.32 98.0462 248.553 98.058 248.756 98.1546C248.96 98.2512 249.116 98.4246 249.192 98.6368C249.268 98.849 249.256 99.0826 249.16 99.2863C249.064 99.49 248.89 99.647 248.679 99.723Z" fill="white"/>
<path d="M247.423 96.2031L234.091 100.966C233.986 101.004 233.875 101.021 233.763 101.015C233.652 101.01 233.543 100.982 233.442 100.935C233.341 100.887 233.251 100.82 233.176 100.737C233.101 100.655 233.043 100.558 233.005 100.453C232.967 100.348 232.951 100.236 232.956 100.125C232.962 100.013 232.989 99.9039 233.037 99.8029C233.084 99.702 233.151 99.6114 233.234 99.5364C233.317 99.4614 233.413 99.4034 233.518 99.3657L233.52 99.3651L246.852 94.6018C246.957 94.5642 247.068 94.5476 247.18 94.553C247.291 94.5584 247.401 94.5858 247.501 94.6335C247.602 94.6812 247.693 94.7483 247.768 94.831C247.843 94.9136 247.901 95.0103 247.938 95.1154C247.976 95.2205 247.992 95.332 247.987 95.4435C247.982 95.555 247.954 95.6643 247.907 95.7653C247.859 95.8662 247.792 95.9568 247.709 96.0318C247.627 96.1068 247.53 96.1648 247.425 96.2025L247.423 96.2031Z" fill="white"/>
<path d="M233.74 84.0604C235.696 84.0604 237.281 82.4733 237.281 80.5157C237.281 78.558 235.696 76.9709 233.74 76.9709C231.784 76.9709 230.198 78.558 230.198 80.5157C230.198 82.4733 231.784 84.0604 233.74 84.0604Z" fill="#05264E"/>
<path d="M58.8639 22.558C62.4307 13.505 68.0705 6.07416 76.4565 0.792174C76.813 0.352036 77.3295 0.0714495 77.8925 0.0119553C78.4555 -0.0475389 79.0191 0.118924 79.4596 0.474829L95.8825 13.7733C96.3223 14.1302 96.6026 14.6471 96.6621 15.2106C96.7215 15.7742 96.5552 16.3383 96.1996 16.7792L78.6071 38.545C78.2505 38.9851 77.7341 39.2657 77.171 39.3252C76.608 39.3847 76.0444 39.2182 75.6039 38.8623L59.181 25.5639C58.7413 25.207 58.4609 24.69 58.4015 24.1265C58.342 23.563 58.5083 22.9989 58.8639 22.558Z" fill="#3C65F5"/>
<path opacity="0.2" d="M61.6164 26.1472C61.1767 25.7903 60.8964 25.2734 60.8369 24.7098C60.7775 24.1463 60.9438 23.5822 61.2994 23.1413C64.8661 14.0883 70.506 6.65744 78.8919 1.37545C79.1275 1.08764 79.4348 0.867224 79.7828 0.736486L79.4596 0.474776C79.0191 0.118877 78.4555 -0.0475968 77.8925 0.0118918C77.3295 0.0713804 76.8131 0.351974 76.4565 0.792099C68.0706 6.0741 62.4307 13.5049 58.8639 22.5579C58.5083 22.9988 58.342 23.563 58.4015 24.1265C58.4609 24.69 58.7412 25.2069 59.181 25.5638L75.6039 38.8623C75.8964 39.0975 76.2458 39.2512 76.6168 39.3076C76.9877 39.3641 77.367 39.3215 77.7162 39.1839L61.6164 26.1472Z" fill="#05264E"/>
<path d="M83.3179 23.7718L72.2879 14.8907C72.113 14.7492 72.0013 14.544 71.9774 14.3202C71.9534 14.0964 72.0191 13.8722 72.1601 13.6968C72.301 13.5214 72.5058 13.4091 72.7293 13.3846C72.9529 13.3601 73.177 13.4253 73.3526 13.5659L84.3827 22.4469C84.5575 22.5885 84.6691 22.7937 84.6931 23.0175C84.717 23.2413 84.6513 23.4654 84.5103 23.6408C84.3694 23.8162 84.1647 23.9284 83.9412 23.953C83.7176 23.9775 83.4935 23.9124 83.3179 23.7717L83.3179 23.7718Z" fill="white"/>
<path d="M77.6341 13.2119L75.2075 11.258C75.0328 11.1164 74.9214 10.9113 74.8976 10.6876C74.8738 10.4639 74.9395 10.2399 75.0804 10.0647C75.2212 9.88938 75.4258 9.77712 75.6492 9.75249C75.8726 9.72786 76.0966 9.79286 76.2722 9.93324L78.6988 11.8871C78.8736 12.0287 78.9851 12.2338 79.0089 12.4575C79.0328 12.6813 78.9671 12.9054 78.8262 13.0807C78.6853 13.256 78.4807 13.3683 78.2572 13.3929C78.0338 13.4175 77.8097 13.3524 77.6341 13.2119L77.6341 13.2119Z" fill="white"/>
<path d="M78.637 29.596L67.607 20.715C67.4321 20.5735 67.3204 20.3683 67.2965 20.1444C67.2725 19.9206 67.3382 19.6964 67.4792 19.521C67.6201 19.3456 67.8249 19.2333 68.0484 19.2088C68.272 19.1843 68.4962 19.2495 68.6718 19.3902L79.7017 28.2712C79.8764 28.4128 79.9878 28.6179 80.0116 28.8416C80.0354 29.0653 79.9697 29.2893 79.8288 29.4646C79.688 29.6398 79.4835 29.7521 79.2601 29.7767C79.0367 29.8014 78.8126 29.7364 78.637 29.596H78.637Z" fill="white"/>
<path d="M80.9774 26.6839L69.9475 17.8029C69.8604 17.7331 69.7878 17.6469 69.734 17.5491C69.6802 17.4513 69.6462 17.3439 69.6339 17.2329C69.609 17.0088 69.6741 16.784 69.8148 16.6079C69.9555 16.4319 70.1603 16.319 70.3842 16.2941C70.6081 16.2692 70.8327 16.3343 71.0086 16.4752L71.0122 16.478L82.0422 25.3591C82.2181 25.4999 82.3309 25.705 82.3557 25.929C82.3806 26.1531 82.3155 26.3779 82.1748 26.554C82.0341 26.7301 81.8293 26.843 81.6054 26.8679C81.3815 26.8928 81.1569 26.8276 80.981 26.6868L80.9774 26.6839V26.6839Z" fill="white"/>
<path d="M87.177 10.3497C89.1328 10.3497 90.7184 8.76265 90.7184 6.80496C90.7184 4.84727 89.1328 3.26025 87.177 3.26025C85.2211 3.26025 83.6355 4.84727 83.6355 6.80496C83.6355 8.76265 85.2211 10.3497 87.177 10.3497Z" fill="#05264E"/>
<path d="M18.2412 128.532C9.59923 117.026 4.60433 104.16 4.44065 89.4922C4.16222 88.7017 4.20843 87.833 4.56913 87.0766C4.92983 86.3202 5.57558 85.7379 6.36469 85.4574L35.821 75.0253C36.6108 74.7467 37.4787 74.7929 38.2344 75.1539C38.9902 75.515 39.5719 76.1613 39.8522 76.9512L53.6527 115.99C53.9311 116.781 53.8849 117.65 53.5242 118.406C53.1635 119.163 52.5177 119.745 51.7286 120.025L22.2723 130.457C21.4826 130.736 20.6146 130.69 19.8589 130.329C19.1032 129.968 18.5214 129.321 18.2412 128.532Z" fill="#3C65F5"/>
<path opacity="0.2" d="M24.8915 127.836C24.1018 128.114 23.2338 128.068 22.4781 127.707C21.7224 127.346 21.1406 126.7 20.8604 125.91C12.2184 114.405 7.22357 101.539 7.05982 86.8707C6.87959 86.3508 6.83975 85.7924 6.94435 85.2521L6.36469 85.4574C5.57558 85.7379 4.92986 86.3202 4.56915 87.0766C4.20844 87.833 4.16222 88.7017 4.44062 89.4922C4.60432 104.16 9.59917 117.026 18.2412 128.532C18.5214 129.321 19.1032 129.968 19.8589 130.329C20.6146 130.69 21.4826 130.736 22.2723 130.457L51.7287 120.025C52.2512 119.838 52.7151 119.516 53.0733 119.092C53.4314 118.668 53.6712 118.156 53.7682 117.609L24.8915 127.836Z" fill="#05264E"/>
<path d="M38.6916 98.6156L18.9717 105.661C18.8162 105.717 18.6512 105.742 18.4861 105.734C18.321 105.726 18.159 105.686 18.0095 105.615C17.8601 105.545 17.726 105.445 17.615 105.323C17.504 105.2 17.4182 105.057 17.3627 104.901C17.3071 104.745 17.2828 104.58 17.2912 104.414C17.2995 104.249 17.3404 104.087 17.4114 103.938C17.4824 103.788 17.5822 103.655 17.705 103.544C17.8278 103.433 17.9712 103.348 18.127 103.293L37.8469 96.2471C38.0023 96.1915 38.1671 96.1672 38.3319 96.1754C38.4966 96.1836 38.6582 96.2243 38.8073 96.295C38.9564 96.3657 39.09 96.4651 39.2007 96.5876C39.3115 96.71 39.397 96.8531 39.4525 97.0086C39.5079 97.1641 39.5322 97.3291 39.524 97.494C39.5158 97.6589 39.4752 97.8206 39.4045 97.9698C39.3339 98.1191 39.2346 98.2529 39.1122 98.3637C38.9899 98.4745 38.847 98.5601 38.6916 98.6156Z" fill="white"/>
<path d="M20.9939 97.6164L16.6555 99.1664C16.342 99.2774 15.9973 99.2594 15.697 99.1164C15.3967 98.9734 15.1653 98.7171 15.0535 98.4036C14.9417 98.0901 14.9586 97.7451 15.1006 97.4441C15.2426 97.1431 15.498 96.9107 15.8108 96.7979L20.1492 95.2478C20.4627 95.1369 20.8074 95.1549 21.1077 95.2978C21.408 95.4408 21.6395 95.6972 21.7513 96.0107C21.8631 96.3241 21.8461 96.6692 21.7041 96.9702C21.5622 97.2712 21.3068 97.5036 20.9939 97.6164Z" fill="white"/>
<path d="M42.405 109.028L22.6851 116.074C22.3713 116.186 22.0259 116.169 21.7248 116.026C21.4237 115.883 21.1916 115.626 21.0796 115.312C20.9676 114.998 20.9848 114.652 21.1275 114.351C21.2702 114.05 21.5266 113.817 21.8405 113.705L41.5603 106.66C41.7157 106.604 41.8805 106.58 42.0453 106.588C42.21 106.596 42.3716 106.637 42.5207 106.708C42.6698 106.778 42.8035 106.878 42.9142 107C43.0249 107.123 43.1104 107.266 43.1659 107.421C43.2213 107.577 43.2456 107.742 43.2374 107.907C43.2292 108.072 43.1886 108.233 43.1179 108.383C43.0473 108.532 42.948 108.666 42.8256 108.776C42.7033 108.887 42.5604 108.973 42.405 109.028Z" fill="white"/>
<path d="M40.5483 103.822L20.8285 110.867C20.6731 110.923 20.5083 110.947 20.3435 110.939C20.1787 110.931 20.0172 110.89 19.8681 110.82C19.719 110.749 19.5853 110.649 19.4746 110.527C19.3639 110.405 19.2784 110.261 19.2229 110.106C19.1674 109.95 19.1431 109.785 19.1513 109.621C19.1596 109.456 19.2002 109.294 19.2708 109.145C19.3415 108.995 19.4408 108.862 19.5631 108.751C19.6854 108.64 19.8284 108.554 19.9838 108.499L39.7036 101.453C39.859 101.398 40.0238 101.374 40.1886 101.382C40.3534 101.39 40.5149 101.431 40.664 101.501C40.8131 101.572 40.9468 101.672 41.0575 101.794C41.1682 101.916 41.2537 102.059 41.3092 102.215C41.3646 102.371 41.389 102.535 41.3807 102.7C41.3725 102.865 41.3319 103.027 41.2613 103.176C41.1906 103.325 41.0913 103.459 40.969 103.57C40.8466 103.681 40.7037 103.767 40.5483 103.822Z" fill="white"/>
<path d="M20.3086 85.8612C23.2017 85.8612 25.5469 83.5138 25.5469 80.6181C25.5469 77.7224 23.2017 75.375 20.3086 75.375C17.4156 75.375 15.0703 77.7224 15.0703 80.6181C15.0703 83.5138 17.4156 85.8612 20.3086 85.8612Z" fill="#05264E"/>
<path d="M212.624 318.163C202.902 318.113 193.94 315.542 185.984 309.631C185.445 309.458 184.996 309.078 184.737 308.574C184.478 308.07 184.429 307.484 184.601 306.944L191.038 286.806C191.211 286.267 191.591 285.818 192.094 285.558C192.597 285.299 193.183 285.25 193.722 285.422L220.363 293.953C220.902 294.127 221.35 294.507 221.61 295.011C221.869 295.514 221.918 296.1 221.746 296.64L215.309 316.778C215.136 317.318 214.756 317.767 214.253 318.026C213.749 318.286 213.164 318.335 212.624 318.163Z" fill="#F2F2F2"/>
<path opacity="0.2" d="M214.97 314.295C214.797 314.834 214.417 315.283 213.914 315.543C213.411 315.802 212.825 315.851 212.286 315.679C202.563 315.63 193.601 313.059 185.645 307.148C185.292 307.032 184.975 306.825 184.727 306.548L184.601 306.944C184.429 307.484 184.478 308.07 184.737 308.574C184.996 309.078 185.445 309.458 185.984 309.631C193.94 315.542 202.902 318.113 212.624 318.163C213.164 318.335 213.749 318.286 214.253 318.026C214.756 317.767 215.136 317.318 215.309 316.778L221.746 296.64C221.859 296.282 221.876 295.901 221.794 295.534C221.712 295.167 221.535 294.829 221.281 294.553L214.97 314.295Z" fill="#05264E"/>
<path d="M204.899 294.908L200.623 308.415C200.59 308.522 200.536 308.621 200.465 308.707C200.393 308.792 200.306 308.863 200.207 308.915C200.108 308.967 200 308.999 199.889 309.009C199.777 309.019 199.665 309.007 199.559 308.974C199.452 308.941 199.353 308.887 199.268 308.815C199.182 308.743 199.111 308.656 199.059 308.557C199.008 308.458 198.976 308.349 198.966 308.238C198.956 308.127 198.968 308.015 199.002 307.908L199.004 307.901L203.28 294.394C203.349 294.18 203.5 294.003 203.699 293.9C203.899 293.796 204.131 293.777 204.345 293.845C204.559 293.913 204.738 294.063 204.842 294.262C204.945 294.461 204.966 294.693 204.899 294.908Z" fill="white"/>
<path d="M197.124 304.035L196.183 307.007C196.149 307.113 196.096 307.212 196.024 307.298C195.953 307.383 195.865 307.454 195.766 307.506C195.667 307.558 195.559 307.59 195.448 307.6C195.337 307.61 195.225 307.598 195.119 307.564C195.012 307.531 194.913 307.477 194.828 307.406C194.742 307.334 194.671 307.246 194.62 307.148C194.568 307.049 194.536 306.941 194.526 306.829C194.516 306.718 194.528 306.606 194.561 306.5L194.563 306.493L195.504 303.521C195.537 303.415 195.591 303.316 195.663 303.23C195.734 303.144 195.822 303.074 195.921 303.022C196.02 302.97 196.128 302.938 196.239 302.928C196.35 302.918 196.462 302.93 196.568 302.963C196.675 302.997 196.773 303.051 196.859 303.122C196.945 303.194 197.015 303.282 197.067 303.38C197.119 303.479 197.151 303.587 197.161 303.699C197.171 303.81 197.159 303.922 197.126 304.028L197.124 304.035Z" fill="white"/>
<path d="M212.018 297.166L207.742 310.673C207.709 310.78 207.655 310.879 207.583 310.964C207.512 311.05 207.424 311.121 207.326 311.173C207.227 311.224 207.119 311.256 207.008 311.266C206.897 311.276 206.785 311.264 206.678 311.231C206.572 311.198 206.473 311.144 206.387 311.072C206.301 311.001 206.231 310.913 206.179 310.814C206.127 310.715 206.095 310.607 206.085 310.496C206.075 310.385 206.087 310.273 206.121 310.166L206.123 310.159L210.399 296.653C210.432 296.546 210.486 296.447 210.557 296.361C210.629 296.275 210.716 296.204 210.815 296.152C210.914 296.1 211.022 296.068 211.134 296.058C211.245 296.047 211.357 296.059 211.464 296.093C211.57 296.126 211.669 296.18 211.755 296.252C211.841 296.324 211.911 296.411 211.963 296.511C212.015 296.61 212.047 296.718 212.056 296.829C212.066 296.941 212.054 297.053 212.02 297.16L212.018 297.166Z" fill="white"/>
<path d="M208.459 296.037L204.182 309.544C204.149 309.651 204.095 309.75 204.024 309.836C203.953 309.922 203.865 309.992 203.766 310.044C203.667 310.096 203.559 310.128 203.448 310.138C203.337 310.148 203.225 310.136 203.118 310.103C203.011 310.07 202.913 310.016 202.827 309.944C202.741 309.872 202.67 309.785 202.619 309.686C202.567 309.587 202.535 309.478 202.525 309.367C202.515 309.256 202.528 309.144 202.561 309.037L202.563 309.03L206.839 295.523C206.873 295.417 206.927 295.318 206.998 295.232C207.07 295.147 207.157 295.076 207.256 295.024C207.355 294.972 207.463 294.94 207.574 294.93C207.685 294.92 207.797 294.932 207.903 294.966C208.01 294.999 208.109 295.053 208.194 295.124C208.28 295.196 208.351 295.284 208.402 295.382C208.454 295.481 208.486 295.589 208.496 295.701C208.506 295.812 208.494 295.924 208.461 296.03L208.459 296.037Z" fill="white"/>
<path d="M187.701 300.997C189.657 300.997 191.243 299.41 191.243 297.452C191.243 295.494 189.657 293.907 187.701 293.907C185.745 293.907 184.16 295.494 184.16 297.452C184.16 299.41 185.745 300.997 187.701 300.997Z" fill="#A0ABB8"/>
<path d="M265.662 159.048C266.008 157.681 264.698 156.17 262.735 155.672C260.772 155.174 258.9 155.878 258.554 157.245C258.208 158.612 259.519 160.124 261.481 160.621C263.444 161.119 265.316 160.415 265.662 159.048Z" fill="white"/>
<path d="M241.691 158.894C242.037 157.527 240.726 156.015 238.763 155.517C236.8 155.019 234.929 155.724 234.583 157.09C234.237 158.457 235.547 159.969 237.51 160.467C239.473 160.965 241.345 160.26 241.691 158.894Z" fill="#05264E"/>
<path d="M270.161 178.954C270.507 177.587 269.196 176.076 267.233 175.578C265.27 175.08 263.398 175.784 263.052 177.151C262.706 178.518 264.017 180.029 265.98 180.527C267.943 181.025 269.814 180.321 270.161 178.954Z" fill="#FF6584"/>
<path d="M275.749 186.46C275.891 185.187 275.289 184.075 274.404 183.976C273.519 183.877 272.687 184.829 272.544 186.102C272.402 187.375 273.004 188.487 273.889 188.586C274.774 188.685 275.606 187.733 275.749 186.46Z" fill="#EFF2FB"/>
<path d="M277.719 201.495C277.862 200.222 277.26 199.11 276.375 199.011C275.49 198.912 274.657 199.864 274.515 201.137C274.373 202.41 274.975 203.522 275.86 203.621C276.745 203.72 277.577 202.768 277.719 201.495Z" fill="#05264E"/>
<path d="M253.212 172.843C253.354 171.57 252.752 170.458 251.868 170.359C250.983 170.26 250.15 171.211 250.008 172.484C249.866 173.757 250.468 174.87 251.353 174.969C252.238 175.068 253.07 174.116 253.212 172.843Z" fill="#EFF2FB"/>
<path d="M265.276 168.307C265.418 167.034 264.816 165.921 263.931 165.822C263.046 165.724 262.214 166.675 262.072 167.948C261.93 169.221 262.532 170.334 263.416 170.433C264.301 170.531 265.134 169.58 265.276 168.307Z" fill="#FF6584"/>
<path d="M250.414 156.052C250.556 154.779 249.954 153.666 249.07 153.567C248.185 153.468 247.352 154.42 247.21 155.693C247.068 156.966 247.67 158.078 248.555 158.177C249.44 158.276 250.272 157.325 250.414 156.052Z" fill="#05264E"/>
<path d="M41.842 150.541C42.1881 149.174 40.8773 147.663 38.9144 147.165C36.9515 146.667 35.0797 147.371 34.7336 148.738C34.3876 150.105 35.6983 151.616 37.6612 152.114C39.6242 152.612 41.496 151.908 41.842 150.541Z" fill="white"/>
<path d="M17.8708 150.386C18.2169 149.02 16.9061 147.508 14.9432 147.01C12.9803 146.512 11.1085 147.216 10.7624 148.583C10.4164 149.95 11.7271 151.462 13.6901 151.959C15.653 152.457 17.5248 151.753 17.8708 150.386Z" fill="#05264E"/>
<path d="M46.3404 170.447C46.6865 169.08 45.3757 167.569 43.4128 167.071C41.4499 166.573 39.5781 167.277 39.2321 168.644C38.886 170.011 40.1967 171.522 42.1597 172.02C44.1226 172.518 45.9944 171.814 46.3404 170.447Z" fill="#FF6584"/>
<path d="M51.9283 177.953C52.0704 176.68 51.4684 175.568 50.5836 175.469C49.6988 175.37 48.8664 176.322 48.7242 177.595C48.5821 178.868 49.1842 179.98 50.069 180.079C50.9537 180.178 51.7862 179.226 51.9283 177.953Z" fill="#EFF2FB"/>
<path d="M53.8994 192.988C54.0415 191.715 53.4395 190.603 52.5547 190.504C51.6699 190.405 50.8374 191.357 50.6953 192.63C50.5532 193.903 51.1552 195.015 52.04 195.114C52.9248 195.213 53.7573 194.261 53.8994 192.988Z" fill="#05264E"/>
<path d="M29.3923 164.335C29.5344 163.062 28.9324 161.95 28.0476 161.851C27.1628 161.752 26.3303 162.704 26.1882 163.977C26.0461 165.25 26.6482 166.362 27.5329 166.461C28.4177 166.56 29.2502 165.609 29.3923 164.335Z" fill="#EFF2FB"/>
<path d="M41.4558 159.799C41.5979 158.526 40.9959 157.414 40.1111 157.315C39.2263 157.216 38.3938 158.168 38.2517 159.441C38.1096 160.714 38.7116 161.826 39.5964 161.925C40.4812 162.024 41.3137 161.072 41.4558 159.799Z" fill="#FF6584"/>
<path d="M26.5942 147.544C26.7363 146.271 26.1343 145.159 25.2495 145.06C24.3647 144.961 23.5323 145.913 23.3901 147.186C23.248 148.459 23.8501 149.571 24.7348 149.67C25.6196 149.769 26.4521 148.817 26.5942 147.544Z" fill="#05264E"/>
<path d="M194.803 218.541C188.96 210.762 185.583 202.064 185.472 192.147C185.284 191.613 185.315 191.026 185.559 190.514C185.803 190.003 186.24 189.609 186.773 189.42L206.688 182.367C207.222 182.178 207.808 182.21 208.319 182.454C208.83 182.698 209.224 183.135 209.413 183.669L218.743 210.062C218.931 210.597 218.9 211.184 218.656 211.695C218.412 212.207 217.976 212.6 217.442 212.79L197.528 219.843C196.994 220.031 196.407 220 195.896 219.756C195.385 219.512 194.992 219.075 194.803 218.541Z" fill="#F2F2F2"/>
<path opacity="0.2" d="M199.299 218.07C198.765 218.259 198.178 218.227 197.667 217.983C197.156 217.739 196.763 217.302 196.574 216.768C190.731 208.99 187.354 200.292 187.243 190.375C187.122 190.024 187.095 189.646 187.165 189.281L186.773 189.42C186.24 189.609 185.803 190.003 185.56 190.514C185.316 191.026 185.284 191.613 185.473 192.147C185.583 202.064 188.96 210.762 194.803 218.541C194.992 219.075 195.386 219.512 195.896 219.756C196.407 220 196.994 220.031 197.528 219.843L217.443 212.79C217.796 212.663 218.11 212.446 218.352 212.159C218.594 211.872 218.756 211.526 218.821 211.156L199.299 218.07Z" fill="#05264E"/>
<path d="M208.628 198.315L195.296 203.079C195.084 203.154 194.851 203.143 194.647 203.046C194.444 202.95 194.287 202.776 194.211 202.564C194.135 202.351 194.147 202.118 194.243 201.914C194.34 201.71 194.513 201.553 194.725 201.477L208.057 196.714C208.162 196.677 208.274 196.66 208.385 196.666C208.497 196.671 208.606 196.699 208.707 196.747C208.807 196.794 208.898 196.862 208.973 196.944C209.048 197.027 209.105 197.124 209.143 197.229C209.18 197.334 209.197 197.446 209.191 197.557C209.186 197.669 209.158 197.778 209.111 197.879C209.063 197.98 208.996 198.07 208.913 198.145C208.83 198.22 208.734 198.278 208.628 198.315Z" fill="white"/>
<path d="M196.664 197.64L193.731 198.688C193.626 198.725 193.514 198.742 193.403 198.737C193.291 198.731 193.182 198.704 193.081 198.656C192.98 198.609 192.89 198.541 192.815 198.459C192.74 198.376 192.682 198.279 192.644 198.174C192.607 198.069 192.59 197.958 192.596 197.846C192.601 197.735 192.628 197.625 192.676 197.524C192.724 197.423 192.791 197.333 192.873 197.258C192.956 197.183 193.053 197.125 193.158 197.087L193.16 197.087L196.093 196.039C196.305 195.963 196.538 195.975 196.741 196.072C196.945 196.168 197.101 196.342 197.177 196.554C197.253 196.766 197.241 197 197.145 197.203C197.049 197.407 196.876 197.564 196.664 197.64Z" fill="white"/>
<path d="M211.139 205.355L197.807 210.118C197.702 210.156 197.591 210.173 197.479 210.167C197.368 210.162 197.259 210.135 197.158 210.087C197.057 210.039 196.967 209.972 196.892 209.889C196.817 209.807 196.759 209.71 196.721 209.605C196.684 209.5 196.667 209.388 196.672 209.277C196.678 209.165 196.705 209.056 196.753 208.955C196.8 208.854 196.867 208.763 196.95 208.688C197.033 208.613 197.129 208.555 197.234 208.518L197.236 208.517L210.568 203.754C210.78 203.678 211.014 203.69 211.217 203.787C211.42 203.883 211.577 204.057 211.653 204.269C211.728 204.481 211.717 204.715 211.621 204.919C211.524 205.122 211.351 205.279 211.139 205.355Z" fill="white"/>
<path d="M209.884 201.835L196.552 206.599C196.447 206.636 196.336 206.653 196.224 206.647C196.113 206.642 196.003 206.615 195.903 206.567C195.802 206.519 195.711 206.452 195.636 206.369C195.561 206.287 195.503 206.19 195.466 206.085C195.428 205.98 195.412 205.868 195.417 205.757C195.422 205.645 195.45 205.536 195.497 205.435C195.545 205.334 195.612 205.244 195.695 205.169C195.777 205.094 195.874 205.036 195.979 204.998L195.981 204.997L209.313 200.234C209.525 200.158 209.758 200.169 209.962 200.266C210.166 200.362 210.323 200.535 210.399 200.748C210.475 200.96 210.463 201.194 210.367 201.398C210.271 201.601 210.098 201.759 209.886 201.835L209.884 201.835Z" fill="white"/>
<path d="M196.2 189.693C198.156 189.693 199.742 188.106 199.742 186.148C199.742 184.19 198.156 182.603 196.2 182.603C194.244 182.603 192.659 184.19 192.659 186.148C192.659 188.106 194.244 189.693 196.2 189.693Z" fill="#A0ABB8"/>
</g>
<defs>
<filter id="filter0_d_1_1981" x="-1" y="0" width="284" height="399" filterUnits="userSpaceOnUse" color-interpolation-filters="sRGB">
<feFlood flood-opacity="0" result="BackgroundImageFix"/>
<feColorMatrix in="SourceAlpha" type="matrix" values="0 0 0 0 0 0 0 0 0 0 0 0 0 0 0 0 0 0 127 0" result="hardAlpha"/>
<feOffset dy="4"/>
<feGaussianBlur stdDeviation="2"/>
<feComposite in2="hardAlpha" operator="out"/>
<feColorMatrix type="matrix" values="0 0 0 0 0 0 0 0 0 0 0 0 0 0 0 0 0 0 0.25 0"/>
<feBlend mode="normal" in2="BackgroundImageFix" result="effect1_dropShadow_1_1981"/>
<feBlend mode="normal" in="SourceGraphic" in2="effect1_dropShadow_1_1981" result="shape"/>
</filter>
</defs>
</svg>
