<svg width="20" height="20" viewBox="0 0 20 20" fill="none" xmlns="http://www.w3.org/2000/svg">
<path d="M7.0001 10L9.0001 12L13.0001 8M5.8351 2.697C6.5524 2.63975 7.23338 2.35771 7.7811 1.891C8.40001 1.36327 9.18674 1.07339 10.0001 1.07339C10.8135 1.07339 11.6002 1.36327 12.2191 1.891C12.7668 2.35771 13.4478 2.63975 14.1651 2.697C14.9758 2.7615 15.7371 3.11283 16.3122 3.68793C16.8873 4.26303 17.2386 5.02425 17.3031 5.835C17.3603 6.55231 17.6424 7.23328 18.1091 7.781C18.6368 8.39991 18.9267 9.18665 18.9267 10C18.9267 10.8134 18.6368 11.6001 18.1091 12.219C17.6424 12.7667 17.3603 13.4477 17.3031 14.165C17.2386 14.9758 16.8873 15.737 16.3122 16.3121C15.7371 16.8872 14.9758 17.2385 14.1651 17.303C13.4478 17.3603 12.7668 17.6423 12.2191 18.109C11.6002 18.6367 10.8135 18.9266 10.0001 18.9266C9.18674 18.9266 8.40001 18.6367 7.7811 18.109C7.23338 17.6423 6.5524 17.3603 5.8351 17.303C5.02434 17.2385 4.26312 16.8872 3.68802 16.3121C3.11292 15.737 2.7616 14.9758 2.6971 14.165C2.63984 13.4477 2.3578 12.7667 1.8911 12.219C1.36336 11.6001 1.07349 10.8134 1.07349 10C1.07349 9.18665 1.36336 8.39991 1.8911 7.781C2.3578 7.23328 2.63984 6.55231 2.6971 5.835C2.7616 5.02425 3.11292 4.26303 3.68802 3.68793C4.26312 3.11283 5.02434 2.7615 5.8351 2.697V2.697Z" stroke="white" stroke-width="2" stroke-linecap="round" stroke-linejoin="round"/>
</svg>
