<svg width="76" height="21" viewBox="0 0 76 21" fill="none" xmlns="http://www.w3.org/2000/svg">
<g opacity="0.3" clip-path="url(#clip0_1_861)">
<path fill-rule="evenodd" clip-rule="evenodd" d="M60.4134 1.02157H66.5931L65.8621 4.61342C67.7526 1.67272 69.9161 0.807316 72.5837 0.626673C73.6041 0.619352 74.6232 0.700879 75.6294 0.870331L74.4406 5.58805C73.4872 5.33364 72.5072 5.19263 71.5209 5.16795C67.866 5.10493 65.1522 7.57091 64.2111 11.1039L62.077 19.2035H55.6621C57.2459 13.1456 59.3464 6.53747 60.4134 1.02577V1.02157Z" fill="#05264E"/>
<path fill-rule="evenodd" clip-rule="evenodd" d="M42.8326 9.09587C43.8996 8.57915 47.6133 8.63376 50.0205 8.33129C52.7889 7.99521 56.6581 6.47025 56.5656 4.1555C56.4144 1.68952 54.2215 1.13079 52.1798 1.40385C47.3739 2.10542 44.2357 5.25616 42.8326 9.09587ZM42.2361 10.667C42.0802 11.6771 42.0253 12.7002 42.0722 13.7212C42.4671 16.7333 45.1095 18.1448 47.9536 18.2372C50.3146 18.2918 53.188 16.8803 54.7508 15.1243C54.7995 15.0562 54.8646 15.0014 54.94 14.965C55.0154 14.9286 55.0987 14.9117 55.1824 14.9158C55.266 14.92 55.3473 14.9451 55.4187 14.9889C55.4901 15.0327 55.5493 15.0937 55.591 15.1663C55.6568 15.2909 55.6873 15.4312 55.6791 15.5718C55.671 15.7125 55.6245 15.8483 55.5448 15.9645C53.0746 18.4221 50.5498 19.779 47.0336 19.8084C43.0468 19.8378 38.0519 18.317 37.4427 14.1749C37.3549 13.6415 37.3436 13.0983 37.4091 12.5617C38.2115 4.89067 45.2104 0.744294 52.0958 0.378807C55.3852 0.198165 60.1323 1.05097 59.8592 4.61341C59.5862 8.36069 53.9232 9.6546 50.2347 9.75962C47.1302 9.85205 43.3073 9.83944 42.2529 10.667H42.2361Z" fill="#05264E"/>
<path fill-rule="evenodd" clip-rule="evenodd" d="M38.8036 14.9983L37.7912 18.9598C35.794 19.4012 33.7534 19.6154 31.7081 19.5984C25.5579 19.4765 21.0502 16.6577 21.3233 10.7973C21.6594 4.0757 28.3306 0.626682 34.7665 0.534261C36.8652 0.522759 38.9575 0.768243 40.9965 1.26523L39.0809 5.07133C37.4034 4.56739 35.6485 4.37098 33.9011 4.4916C30.9604 4.70585 28.2381 6.28962 27.4441 9.39415C26.4107 13.2927 28.6624 16.0359 32.6534 16.0359C34.7435 15.9957 36.816 15.646 38.8036 14.9983Z" fill="#05264E"/>
<path fill-rule="evenodd" clip-rule="evenodd" d="M12.7954 0.593068C17.9458 0.593068 21.8191 1.77775 22.1888 6.05436C22.3316 7.69695 21.7351 9.16309 21.2772 10.8981L19.1305 19.2329C15.0219 19.2329 11.6695 19.3253 7.95583 19.6278C4.51522 19.6278 0.394043 18.8968 0.394043 14.511C0.473862 7.34406 11.5771 7.99522 16.299 7.99522C17.303 5.13014 14.9589 3.97487 11.6779 3.97487C8.69521 3.97487 6.23762 4.81507 3.83046 5.61746L4.67065 1.75254C7.30613 0.963989 10.0445 0.573192 12.7954 0.593068ZM15.5974 10.8603C13.0054 10.8603 5.67889 10.247 5.67889 14.2211C5.67889 16.1998 7.74998 16.4938 9.48499 16.4938C14.0473 16.4938 14.7572 14.9017 15.5974 10.8687V10.8603Z" fill="#05264E"/>
<path fill-rule="evenodd" clip-rule="evenodd" d="M73.4621 15.515C73.1336 15.5135 72.808 15.5774 72.5044 15.7029C72.2008 15.8284 71.9251 16.013 71.6935 16.2459C71.2172 16.7365 70.9454 17.3898 70.9331 18.0734C70.9414 18.7348 71.203 19.3678 71.6641 19.842C71.8987 20.0808 72.1785 20.2705 72.4872 20.3999C72.7959 20.5294 73.1273 20.5961 73.4621 20.5961C73.7969 20.5961 74.1283 20.5294 74.437 20.3999C74.7457 20.2705 75.0255 20.0808 75.2601 19.842C75.4943 19.6114 75.6794 19.3359 75.8043 19.032C75.9292 18.728 75.9913 18.402 75.9869 18.0734C75.9965 17.7404 75.9368 17.409 75.8117 17.1002C75.6866 16.7914 75.4988 16.512 75.2601 16.2796C75.0254 16.0402 74.7458 15.8494 74.4373 15.7182C74.1287 15.587 73.7974 15.518 73.4621 15.515ZM75.7474 18.0734C75.7475 18.369 75.688 18.6616 75.5725 18.9337C75.457 19.2058 75.2879 19.4518 75.0753 19.6572C74.6455 20.0826 74.0668 20.3238 73.4621 20.3293C72.8617 20.3272 72.2861 20.0898 71.8588 19.668C71.4315 19.2462 71.1867 18.6737 71.1768 18.0734C71.1834 17.4602 71.4238 16.8727 71.8489 16.4308C72.06 16.2177 72.3113 16.0485 72.5882 15.9331C72.8651 15.8178 73.1621 15.7584 73.4621 15.7586C73.765 15.7571 74.0648 15.8187 74.3426 15.9395C74.6203 16.0603 74.8699 16.2376 75.0753 16.4602C75.2903 16.6699 75.4607 16.9209 75.5763 17.1981C75.6918 17.4753 75.75 17.7731 75.7474 18.0734ZM73.5209 16.5526H72.4875V19.4933H72.8824V18.1658H73.6133L74.2519 19.4765H74.7098L74.0418 18.1364C74.2361 18.1256 74.4189 18.0408 74.5526 17.8994C74.6862 17.7579 74.7605 17.5706 74.7602 17.376C74.7602 16.7963 74.3653 16.5358 73.5419 16.5358L73.5209 16.5526ZM73.4621 16.8257C74.0418 16.8257 74.3443 16.9769 74.3443 17.3424C74.3443 17.8003 74.0712 17.9221 73.4621 17.9221H72.8824V16.8257H73.4621Z" fill="#05264E"/>
</g>
<defs>
<clipPath id="clip0_1_861">
<rect width="75.5843" height="20.2446" fill="white" transform="translate(0.402832 0.357788)"/>
</clipPath>
</defs>
</svg>
