<svg width="105" height="21" viewBox="0 0 105 21" fill="none" xmlns="http://www.w3.org/2000/svg">
<g opacity="0.3" clip-path="url(#clip0_1_863)">
<path fill-rule="evenodd" clip-rule="evenodd" d="M101.716 0.54599C102.134 0.548991 102.545 0.657487 102.911 0.861447C103.294 1.06633 103.609 1.37774 103.819 1.75801C104.031 2.12669 104.142 2.54463 104.142 2.97003C104.142 3.39542 104.031 3.81336 103.819 4.18205C103.611 4.56359 103.298 4.87692 102.916 5.08414C102.549 5.29488 102.133 5.40557 101.71 5.40513C101.285 5.40499 100.867 5.29438 100.498 5.08414C100.117 4.87761 99.8056 4.56397 99.6014 4.18205C99.389 3.81534 99.2764 3.39935 99.2749 2.97556C99.277 2.54836 99.3895 2.12895 99.6014 1.75801C99.8162 1.37791 100.135 1.06691 100.52 0.861447C100.885 0.656814 101.297 0.548272 101.716 0.54599ZM100.647 4.3204V1.7082H101.544C101.769 1.6988 101.995 1.72116 102.214 1.77461C102.347 1.82181 102.462 1.91116 102.54 2.02919C102.619 2.1409 102.662 2.27427 102.662 2.41106C102.664 2.59859 102.593 2.77949 102.463 2.91468C102.314 3.06006 102.117 3.1449 101.909 3.15266C101.993 3.18355 102.07 3.23055 102.136 3.29102C102.283 3.44894 102.411 3.62354 102.518 3.81125L102.839 4.3204H102.324L102.092 3.90533C101.984 3.67774 101.834 3.47295 101.649 3.30209C101.55 3.23498 101.431 3.20197 101.312 3.208H101.062V4.31487L100.647 4.3204Z" fill="#05264E"/>
<path fill-rule="evenodd" clip-rule="evenodd" d="M54.84 0.38546H54.923V5.97513H49.3056V0.38546H54.84ZM30.2897 12.2013L43.3452 13.0093C43.606 13.0122 43.8551 13.1178 44.0385 13.3033C44.2219 13.4888 44.3247 13.7391 44.3247 13.9999C44.3247 14.1293 44.2992 14.2574 44.2497 14.3769C44.2002 14.4964 44.1277 14.605 44.0362 14.6965C43.9447 14.788 43.8361 14.8605 43.7166 14.91C43.5971 14.9595 43.469 14.985 43.3396 14.985H24.7387V7.71291C25.2922 9.95985 27.279 11.7972 30.2731 12.2013H30.2897ZM24.7553 20.6024H43.7713C45.0975 20.5992 46.3815 20.1363 47.4047 19.2927C48.4279 18.4491 49.1271 17.2769 49.3831 15.9757C49.6082 17.2632 50.2774 18.4311 51.2744 19.2764C52.2713 20.1217 53.533 20.5908 54.84 20.6024H67.0155C68.3166 20.5973 69.5752 20.1385 70.5744 19.3051C71.5735 18.4716 72.2506 17.3157 72.4889 16.0365V20.6024H91.9753C93.4902 20.598 94.9418 19.9943 96.013 18.9231C97.0842 17.8519 97.6879 16.4003 97.6923 14.8854V14.0719C97.6879 12.557 97.0842 11.1054 96.013 10.0342C94.9418 8.963 93.4902 8.35928 91.9753 8.3549L90.9072 8.30509C84.8194 8.03944 78.7981 7.75165 72.7435 7.42513C73.2139 9.79936 75.2174 11.7751 78.3609 12.2013L91.5602 13.0093C91.822 13.0107 92.0726 13.1157 92.2572 13.3014C92.4418 13.487 92.5454 13.7381 92.5454 13.9999C92.5454 14.2612 92.4416 14.5117 92.2568 14.6965C92.0721 14.8812 91.8215 14.985 91.5602 14.985H72.5498V7.41406L66.9048 7.12627V13.5959C66.9048 14.0362 66.7299 14.4585 66.4185 14.7699C66.1071 15.0813 65.6848 15.2562 65.2445 15.2562H56.5833C56.1429 15.2562 55.7206 15.0813 55.4093 14.7699C55.0979 14.4585 54.923 14.0362 54.923 13.5959V6.50643L49.3056 6.21311V12.6329C48.9726 11.4239 48.2495 10.3587 47.2487 9.60308C46.2478 8.84744 45.0253 8.44366 43.7713 8.45451L18.9 6.82742V20.6024H24.7387H24.7553ZM48.398 5.97513V0.357788H30.2897C29.0161 0.366009 27.7814 0.797216 26.7796 1.58362C25.7778 2.37003 25.0657 3.46705 24.7553 4.70224V0.38546H13.9302L10.2443 5.97513H48.398ZM16.5147 6.68906L7.58784 20.6024H0.603516L10.0119 6.31273L16.5036 6.68906H16.5147ZM97.6868 5.97513V0.357788H78.3553C76.857 0.361786 75.4196 0.951618 74.3503 2.00126C73.281 3.0509 72.6646 4.4771 72.6328 5.97513H97.6868ZM66.9269 5.97513V0.38546H72.5498V5.97513H66.9269Z" fill="#05264E"/>
</g>
<defs>
<clipPath id="clip0_1_863">
<rect width="103.542" height="20.2446" fill="white" transform="translate(0.603516 0.357788)"/>
</clipPath>
</defs>
</svg>
