<svg width="40" height="40" viewBox="0 0 40 40" fill="none" xmlns="http://www.w3.org/2000/svg">
<path d="M24.5873 34.9888C24.6021 35.0827 24.5963 35.1787 24.5705 35.2702C24.5447 35.3617 24.4993 35.4465 24.4376 35.5189C24.3759 35.5912 24.2992 35.6493 24.2129 35.6892C24.1266 35.7291 24.0327 35.7498 23.9376 35.75H18.1298C17.4932 35.3431 16.8829 34.9034 16.2923 34.4375C16.0561 34.2538 15.8264 34.0634 15.5967 33.8731L16.0692 31.0513C16.0941 30.8971 16.1732 30.7568 16.2923 30.6557C16.4114 30.5547 16.5627 30.4995 16.7189 30.5H23.2814C23.4376 30.4995 23.5888 30.5547 23.7079 30.6557C23.827 30.7568 23.9062 30.8971 23.9311 31.0513L24.4954 34.4375L24.5873 34.9888Z" fill="#4294FF"/>
<path d="M10.8125 18.6875H6.875C6.51256 18.6875 6.21875 18.9813 6.21875 19.3438V31.1562C6.21875 31.5187 6.51256 31.8125 6.875 31.8125H10.8125C11.1749 31.8125 11.4688 31.5187 11.4688 31.1562V19.3438C11.4688 18.9813 11.1749 18.6875 10.8125 18.6875Z" fill="#4294FF"/>
<path d="M21.9688 18.6875H18.0312C17.6688 18.6875 17.375 18.9813 17.375 19.3438V31.1562C17.375 31.5187 17.6688 31.8125 18.0312 31.8125H21.9688C22.3312 31.8125 22.625 31.5187 22.625 31.1562V19.3438C22.625 18.9813 22.3312 18.6875 21.9688 18.6875Z" fill="#4294FF"/>
<path d="M33.125 18.6875H29.1875C28.8251 18.6875 28.5312 18.9813 28.5312 19.3438V31.1562C28.5312 31.5187 28.8251 31.8125 29.1875 31.8125H33.125C33.4874 31.8125 33.7812 31.5187 33.7812 31.1562V19.3438C33.7812 18.9813 33.4874 18.6875 33.125 18.6875Z" fill="#4294FF"/>
<path d="M23.9379 14.75H16.0629C15.9676 14.75 15.8735 14.7708 15.787 14.8109C15.7005 14.851 15.6238 14.9094 15.5622 14.9821C15.5006 15.0549 15.4556 15.1402 15.4303 15.232C15.405 15.3239 15.4 15.4203 15.4157 15.5143L16.0719 19.4518C16.0975 19.605 16.1766 19.7441 16.2951 19.8445C16.4136 19.9449 16.5639 20 16.7192 20H23.2817C23.437 20.0001 23.5874 19.945 23.7059 19.8446C23.8244 19.7442 23.9035 19.605 23.929 19.4518L24.5852 15.5143C24.6009 15.4203 24.5959 15.3239 24.5706 15.232C24.5453 15.1402 24.5003 15.0549 24.4387 14.9821C24.3771 14.9094 24.3004 14.851 24.2139 14.8109C24.1274 14.7708 24.0333 14.75 23.9379 14.75Z" fill="#4294FF"/>
<path d="M12.7817 14.75H4.9067C4.81138 14.75 4.71721 14.7708 4.63073 14.8109C4.54426 14.851 4.46755 14.9094 4.40595 14.9821C4.34435 15.0549 4.29933 15.1402 4.27403 15.232C4.24873 15.3239 4.24375 15.4203 4.25944 15.5143L4.91569 19.4518C4.94125 19.605 5.02033 19.7441 5.13884 19.8445C5.25736 19.9449 5.40763 20 5.56295 20H12.1254C12.2808 20 12.431 19.9449 12.5496 19.8445C12.6681 19.7441 12.7471 19.605 12.7727 19.4518L13.429 15.5143C13.4446 15.4203 13.4397 15.3239 13.4144 15.232C13.3891 15.1402 13.344 15.0549 13.2824 14.9821C13.2208 14.9094 13.1441 14.851 13.0577 14.8109C12.9712 14.7708 12.877 14.75 12.7817 14.75Z" fill="#4294FF"/>
<path d="M27.8754 20H34.438C34.5933 20.0001 34.7436 19.945 34.8622 19.8446C34.9807 19.7442 35.0597 19.605 35.0852 19.4518L35.7415 15.5143C35.7572 15.4203 35.7522 15.3239 35.7269 15.232C35.7016 15.1402 35.6566 15.0549 35.595 14.9821C35.5333 14.9094 35.4566 14.851 35.3702 14.8109C35.2837 14.7708 35.1895 14.75 35.0942 14.75H27.2192C27.1239 14.75 27.0297 14.7708 26.9432 14.8109C26.8568 14.851 26.7801 14.9094 26.7185 14.9821C26.6568 15.0549 26.6118 15.1402 26.5865 15.232C26.5612 15.3239 26.5563 15.4203 26.5719 15.5143L27.2282 19.4518C27.2537 19.605 27.3327 19.7442 27.4513 19.8446C27.5698 19.945 27.7201 20.0001 27.8754 20V20Z" fill="#4294FF"/>
<path d="M23.2817 30.5H16.7192C16.5639 30.5 16.4136 30.5551 16.2951 30.6555C16.1766 30.7559 16.0975 30.895 16.0719 31.0482L15.4157 34.9857C15.4 35.0797 15.405 35.1761 15.4303 35.268C15.4556 35.3598 15.5006 35.4451 15.5622 35.5179C15.6238 35.5906 15.7005 35.649 15.787 35.6891C15.8735 35.7292 15.9676 35.75 16.0629 35.75H23.9379C24.0333 35.75 24.1274 35.7292 24.2139 35.6891C24.3004 35.649 24.3771 35.5906 24.4387 35.5179C24.5003 35.4451 24.5453 35.3598 24.5706 35.268C24.5959 35.1761 24.6009 35.0797 24.5852 34.9857L23.929 31.0482C23.9035 30.895 23.8244 30.7558 23.7059 30.6554C23.5874 30.555 23.437 30.4999 23.2817 30.5Z" fill="#4294FF"/>
<path d="M34.438 30.5H27.8754C27.7201 30.4999 27.5698 30.555 27.4513 30.6554C27.3327 30.7558 27.2537 30.895 27.2282 31.0482L26.5719 34.9857C26.5563 35.0797 26.5612 35.1761 26.5865 35.268C26.6118 35.3598 26.6568 35.4451 26.7185 35.5179C26.7801 35.5906 26.8568 35.649 26.9432 35.6891C27.0297 35.7292 27.1239 35.75 27.2192 35.75H35.0942C35.1895 35.75 35.2837 35.7292 35.3702 35.6891C35.4566 35.649 35.5333 35.5906 35.595 35.5179C35.6566 35.4451 35.7016 35.3598 35.7269 35.268C35.7522 35.1761 35.7572 35.0797 35.7415 34.9857L35.0852 31.0482C35.0597 30.895 34.9807 30.7558 34.8622 30.6554C34.7436 30.555 34.5933 30.4999 34.438 30.5Z" fill="#4294FF"/>
<path d="M12.1254 30.5H5.56295C5.40763 30.5 5.25736 30.5551 5.13884 30.6555C5.02033 30.7559 4.94125 30.895 4.91569 31.0482L4.25944 34.9857C4.24375 35.0797 4.24873 35.1761 4.27403 35.268C4.29933 35.3598 4.34435 35.4451 4.40595 35.5179C4.46755 35.5906 4.54426 35.649 4.63073 35.6891C4.71721 35.7292 4.81138 35.75 4.9067 35.75H12.7817C12.877 35.75 12.9712 35.7292 13.0577 35.6891C13.1441 35.649 13.2208 35.5906 13.2824 35.5179C13.344 35.4451 13.3891 35.3598 13.4144 35.268C13.4397 35.1761 13.4446 35.0797 13.429 34.9857L12.7727 31.0482C12.7471 30.895 12.6681 30.7559 12.5496 30.6555C12.431 30.5551 12.2808 30.5 12.1254 30.5Z" fill="#4294FF"/>
<path d="M7.1375 18.6875C7.00987 17.8174 6.92881 16.9412 6.89469 16.0625C6.88156 15.7344 6.875 15.4062 6.875 15.0781C6.875 14.9666 6.875 14.8616 6.88156 14.75H4.25V16.0625H4.34844L4.91281 19.4487C4.93771 19.603 5.01683 19.7432 5.13594 19.8443C5.25504 19.9453 5.4063 20.0005 5.5625 20H7.36719C7.28188 19.5669 7.20312 19.1272 7.1375 18.6875V18.6875Z" fill="#4294FF"/>
<path d="M37.0625 34.4375H2.9375C2.57506 34.4375 2.28125 34.7313 2.28125 35.0938V39.0312C2.28125 39.3937 2.57506 39.6875 2.9375 39.6875H37.0625C37.4249 39.6875 37.7188 39.3937 37.7188 39.0312V35.0938C37.7188 34.7313 37.4249 34.4375 37.0625 34.4375Z" fill="#E6ECFF"/>
<path d="M11.4688 29.3975V30.5H6.21875V20H7.36719C8.0552 23.3871 9.45309 26.5899 11.4688 29.3975V29.3975Z" fill="#578BFF"/>
<path d="M16.2924 34.4374H15.5049L15.5968 33.873C15.8264 34.0634 16.0561 34.2537 16.2924 34.4374Z" fill="#4294FF"/>
<path d="M31.4844 39.6875H2.9375C2.76361 39.687 2.59698 39.6177 2.47402 39.4947C2.35105 39.3718 2.28175 39.2051 2.28125 39.0312V35.0937C2.28175 34.9199 2.35105 34.7532 2.47402 34.6303C2.59698 34.5073 2.76361 34.438 2.9375 34.4375H16.2922C16.8828 34.9034 17.4931 35.3431 18.1297 35.75C22.1055 38.3292 26.7453 39.6972 31.4844 39.6875V39.6875Z" fill="#E6ECFF"/>
<path d="M37.0625 11.4688H2.9375C2.57506 11.4688 2.28125 11.7626 2.28125 12.125V15.4062C2.28125 15.7687 2.57506 16.0625 2.9375 16.0625H37.0625C37.4249 16.0625 37.7188 15.7687 37.7188 15.4062V12.125C37.7188 11.7626 37.4249 11.4688 37.0625 11.4688Z" fill="#E6ECFF"/>
<path d="M6.88156 14.75C6.875 14.8616 6.875 14.9666 6.875 15.0781C6.875 15.4062 6.88156 15.7344 6.89469 16.0625H2.9375C2.76361 16.062 2.59698 15.9927 2.47402 15.8697C2.35105 15.7468 2.28175 15.5801 2.28125 15.4062V11.4688H7.1375C7.07187 11.9019 7.01937 12.3416 6.98 12.7812C6.92094 13.4309 6.88813 14.0872 6.88156 14.75V14.75Z" fill="#BECCED"/>
<path d="M39.3635 11.5587L20.3322 0.402494C20.2315 0.343639 20.1169 0.312622 20.0002 0.312622C19.8836 0.312622 19.769 0.343639 19.6682 0.402494L0.636986 11.5587C0.512637 11.6316 0.415731 11.7434 0.361231 11.8768C0.306731 12.0102 0.297667 12.1579 0.33544 12.297C0.373213 12.436 0.455721 12.5588 0.570225 12.6463C0.684729 12.7339 0.82486 12.7813 0.968983 12.7812H39.0315C39.1756 12.7813 39.3157 12.7339 39.4302 12.6463C39.5447 12.5588 39.6273 12.436 39.665 12.297C39.7028 12.1579 39.6937 12.0102 39.6392 11.8768C39.5847 11.7434 39.4878 11.6316 39.3635 11.5587V11.5587Z" fill="#E6ECFF"/>
<path d="M21.3125 6.21875C21.4865 6.21875 21.6535 6.14961 21.7765 6.02654C21.8996 5.90347 21.9688 5.73655 21.9688 5.5625V5.46669C21.9674 5.06933 21.8394 4.68275 21.6034 4.36307C21.3673 4.04339 21.0356 3.80724 20.6562 3.68891V3.59375C20.6562 3.4197 20.5871 3.25278 20.464 3.12971C20.341 3.00664 20.174 2.9375 20 2.9375C19.826 2.9375 19.659 3.00664 19.536 3.12971C19.4129 3.25278 19.3438 3.4197 19.3438 3.59375V3.68891C18.9878 3.79951 18.6732 4.01415 18.4403 4.30518C18.2075 4.59621 18.0671 4.9503 18.0373 5.32182C18.0074 5.69334 18.0895 6.06528 18.273 6.38973C18.4564 6.71417 18.7328 6.97626 19.0666 7.14222L20.3462 7.78148C20.4592 7.83797 20.5497 7.93093 20.6032 8.0453C20.6568 8.15967 20.6701 8.28875 20.6411 8.41166C20.6122 8.53456 20.5426 8.64408 20.4436 8.7225C20.3446 8.80092 20.2221 8.84364 20.0958 8.84375H19.9042C19.7556 8.84354 19.6132 8.78443 19.5081 8.67937C19.4031 8.57431 19.344 8.43189 19.3438 8.28331V8.1875C19.3438 8.01345 19.2746 7.84653 19.1515 7.72346C19.0285 7.60039 18.8615 7.53125 18.6875 7.53125C18.5135 7.53125 18.3465 7.60039 18.2235 7.72346C18.1004 7.84653 18.0312 8.01345 18.0312 8.1875V8.28331C18.0326 8.68067 18.1606 9.06725 18.3966 9.38693C18.6327 9.70661 18.9644 9.94276 19.3438 10.0611V10.1562C19.3438 10.3303 19.4129 10.4972 19.536 10.6203C19.659 10.7434 19.826 10.8125 20 10.8125C20.174 10.8125 20.341 10.7434 20.464 10.6203C20.5871 10.4972 20.6562 10.3303 20.6562 10.1562V10.0611C21.0122 9.9505 21.3269 9.73585 21.5598 9.4448C21.7926 9.15375 21.933 8.79964 21.9628 8.42809C21.9926 8.05654 21.9104 7.68458 21.7269 7.36015C21.5434 7.03571 21.2669 6.77367 20.9331 6.60778L19.654 5.96852C19.5409 5.91212 19.4503 5.81919 19.3967 5.70481C19.343 5.59043 19.3296 5.4613 19.3586 5.33834C19.3876 5.21538 19.4572 5.10581 19.5562 5.02739C19.6553 4.94896 19.7779 4.90628 19.9042 4.90625H20.0958C20.2444 4.90646 20.3868 4.96557 20.4919 5.07063C20.5969 5.17569 20.656 5.31811 20.6562 5.46669V5.5625C20.6562 5.73655 20.7254 5.90347 20.8485 6.02654C20.9715 6.14961 21.1385 6.21875 21.3125 6.21875Z" fill="#4294FF"/>
<path d="M8.18797 7.13086C7.70582 8.54157 7.35434 9.99362 7.13797 11.4687C7.07235 11.9018 7.01985 12.3415 6.98047 12.7812H0.969224C0.825945 12.7802 0.686922 12.7324 0.573305 12.6451C0.459689 12.5578 0.377699 12.4357 0.339811 12.2976C0.301922 12.1594 0.310209 12.0126 0.36341 11.8796C0.416612 11.7465 0.511815 11.6345 0.634536 11.5605L8.18797 7.13086Z" fill="#E6ECFF"/>
</svg>
