<svg width="114" height="21" viewBox="0 0 114 21" fill="none" xmlns="http://www.w3.org/2000/svg">
<g opacity="0.3" clip-path="url(#clip0_1_864)">
<path fill-rule="evenodd" clip-rule="evenodd" d="M76.8438 20.1738C76.8437 20.2336 76.8671 20.2911 76.9088 20.3339C76.9505 20.3768 77.0073 20.4016 77.0671 20.4032H82.6383C82.6681 20.4032 82.6976 20.3972 82.7251 20.3856C82.7526 20.374 82.7775 20.357 82.7984 20.3357C82.8192 20.3143 82.8355 20.2889 82.8464 20.2611C82.8572 20.2333 82.8624 20.2037 82.8616 20.1738V0.846708C82.8624 0.817153 82.8572 0.787739 82.8463 0.760267C82.8354 0.732795 82.8189 0.707842 82.798 0.686935C82.7771 0.666029 82.7522 0.649608 82.7247 0.63868C82.6972 0.627751 82.6678 0.622544 82.6383 0.623377H77.0671C77.0079 0.623377 76.951 0.646907 76.9092 0.688789C76.8673 0.730672 76.8438 0.787477 76.8438 0.846708V20.1618V20.1738Z" fill="#05264E"/>
<path fill-rule="evenodd" clip-rule="evenodd" d="M50.8416 19.9384L42.6387 0.961387C42.6096 0.902198 42.5651 0.851925 42.5099 0.815822C42.4547 0.77972 42.3908 0.759116 42.3249 0.756165H34.0737C34.0076 0.758469 33.9435 0.778811 33.8881 0.814987C33.8328 0.851163 33.7884 0.901792 33.7598 0.961387L25.557 19.9384C25.5424 19.96 25.5345 19.9854 25.5342 20.0115C25.5339 20.0375 25.5413 20.0631 25.5555 20.085C25.5696 20.1068 25.5899 20.1241 25.6138 20.1345C25.6377 20.1449 25.6641 20.1481 25.6898 20.1436H31.4964C31.5618 20.1391 31.6249 20.1171 31.679 20.0799C31.7332 20.0428 31.7764 19.9918 31.8042 19.9324L33.0114 16.9989C33.0395 16.9402 33.0829 16.8901 33.1371 16.854C33.1913 16.8179 33.2542 16.7971 33.3192 16.7937H43.1156C43.1801 16.7962 43.2426 16.8167 43.2959 16.853C43.3493 16.8893 43.3914 16.9398 43.4174 16.9989L44.534 19.9324C44.5597 19.9922 44.6016 20.0436 44.6549 20.0809C44.7082 20.1182 44.7708 20.14 44.8358 20.1436H50.7028C50.7282 20.1469 50.7541 20.143 50.7775 20.1324C50.8009 20.1218 50.8209 20.105 50.8353 20.0837C50.8497 20.0624 50.8579 20.0376 50.859 20.012C50.8601 19.9863 50.8541 19.9609 50.8416 19.9384ZM34.6169 12.6953L37.3271 5.63321C37.647 4.92701 37.9307 4.83043 38.2446 4.83043C38.5584 4.83043 38.9085 5.12016 39.1017 5.66943L41.7695 12.6953H34.6169Z" fill="#05264E"/>
<path fill-rule="evenodd" clip-rule="evenodd" d="M101.38 0.502655H95.0245C87.3347 0.617338 86.1577 3.06794 86.1577 10.2266C86.1577 11.4338 86.1577 12.641 86.212 13.8481C86.4233 18.6226 89.0308 20.1014 93.3888 20.4273C94.7529 20.5179 97.9339 20.5782 98.0667 20.5722C98.0667 20.5722 101.646 20.5179 103.01 20.4273C107.368 20.1014 109.976 18.6165 110.187 13.8481C110.247 12.641 110.247 11.4338 110.247 10.2266C110.247 3.06794 109.04 0.617338 101.38 0.502655ZM104.163 11.0595C104.163 14.3189 103.958 15.5986 100.372 15.6831C99.4368 15.7374 96.9681 15.7374 96.0325 15.6831C92.4411 15.5986 92.2359 14.3189 92.2359 11.0595V10.2568C92.221 9.48506 92.2512 8.71315 92.3265 7.94498C92.6826 5.21673 94.7408 5.36763 96.7448 5.30727C97.4812 5.30727 98.9177 5.30727 99.6601 5.30727C101.676 5.36763 103.722 5.21673 104.078 7.94498C104.149 8.71346 104.177 9.4852 104.163 10.2568V11.0595Z" fill="#05264E"/>
<path fill-rule="evenodd" clip-rule="evenodd" d="M18.6031 12.7617C18.4341 14.7777 17.734 15.6167 14.8548 15.6831C13.9192 15.7374 11.4505 15.7374 10.515 15.6831C6.9296 15.5986 6.71834 14.319 6.71834 11.0595V10.2568C6.70342 9.48506 6.73365 8.71315 6.80888 7.94498C7.165 5.21673 9.22326 5.36763 11.2272 5.30727C11.9696 5.30727 13.4062 5.30727 14.1426 5.30727C16.068 5.3616 18.0176 5.23484 18.5005 7.58886H24.6512C24.295 2.45227 22.5205 0.59923 15.8628 0.502655H9.50695C1.84733 0.617338 0.640137 3.06794 0.640137 10.2266C0.640137 11.4338 0.640137 12.641 0.700496 13.8481C0.905719 18.6528 3.51929 20.1316 7.88328 20.4575C9.2474 20.5481 12.4223 20.6084 12.5551 20.6024C12.5551 20.6024 16.1344 20.5481 17.4986 20.4575C21.8565 20.1316 24.4701 18.6467 24.6753 13.8783C24.6753 13.5041 24.6753 13.1359 24.7175 12.7617H18.6031Z" fill="#05264E"/>
<path fill-rule="evenodd" clip-rule="evenodd" d="M58.7305 12.6651C60.0644 12.6651 61.3682 12.7134 62.7082 12.7255L64.35 12.7918C65.7141 12.8643 67.7784 12.3693 67.7784 14.6026C67.7784 16.0513 66.3841 16.0814 65.3157 16.1358C63.7705 16.1841 63.9999 16.2082 62.4607 16.1961C61.5131 16.1961 61.4346 16.1961 60.4568 16.1539C59.1228 16.0814 58.2355 15.7495 58.1571 14.2646L52.2539 14.2405C52.2539 15.4899 52.1754 16.4617 52.8213 17.6266C54.2216 19.9807 57.0465 20.4153 59.4608 20.4635L62.3219 20.542C64.6035 20.542 67.8569 20.542 69.9634 20.0048C73.0719 19.2081 73.6755 17.1921 73.6755 14.2405C73.7545 12.9311 73.3933 11.6329 72.6494 10.5525C71.7682 9.39964 70.3678 8.82623 68.6415 8.74173C65.3519 8.56668 64.6095 8.50632 61.3199 8.48218H60.2455C58.9418 8.48218 57.4569 8.05966 57.469 6.4541C57.4811 4.84854 58.815 4.68557 60.155 4.64331C60.8129 4.64331 61.5976 4.64331 62.9315 4.64331C63.8792 4.64331 63.6015 4.69764 64.5491 4.68557C66.1607 4.68557 67.6637 4.7761 67.6516 6.58689L73.5789 6.62914V5.73582C73.6152 1.26922 70.6575 0.707873 67.3921 0.478507C66.0581 0.357788 64.694 0.357788 63.3601 0.357788C60.7827 0.357788 60.8069 0.394004 58.2295 0.526795C53.6603 0.8467 51.5175 1.73398 51.4813 6.56275C51.4451 11.6933 54.1371 12.5987 58.7245 12.6349L58.7305 12.6651Z" fill="#05264E"/>
<path fill-rule="evenodd" clip-rule="evenodd" d="M113.361 18.0914C113.232 17.8602 113.042 17.6684 112.812 17.5361C112.582 17.405 112.322 17.3363 112.058 17.3369C111.795 17.3365 111.537 17.4052 111.309 17.5361C111.076 17.6663 110.884 17.8585 110.754 18.0914C110.622 18.321 110.554 18.5813 110.555 18.8459C110.554 19.112 110.624 19.3735 110.758 19.6036C110.892 19.8337 111.084 20.0243 111.315 20.1557C111.542 20.2826 111.798 20.3492 112.058 20.3492C112.318 20.3492 112.573 20.2826 112.8 20.1557C113.031 20.0231 113.223 19.8325 113.358 19.6028C113.492 19.373 113.564 19.1121 113.567 18.8459C113.569 18.5804 113.498 18.3193 113.361 18.0914ZM113.162 19.4918C113.046 19.679 112.883 19.833 112.689 19.9388C112.496 20.0445 112.278 20.0985 112.058 20.0953C111.836 20.0958 111.618 20.0397 111.424 19.9324C111.228 19.8206 111.065 19.659 110.951 19.464C110.838 19.269 110.778 19.0474 110.778 18.8218C110.779 18.5976 110.837 18.3773 110.947 18.182C111.059 17.9863 111.221 17.8237 111.416 17.7106C111.611 17.5975 111.832 17.5379 112.058 17.5379C112.283 17.5379 112.505 17.5975 112.7 17.7106C112.895 17.8237 113.056 17.9863 113.168 18.182C113.278 18.3773 113.336 18.5976 113.337 18.8218C113.337 19.0488 113.277 19.2717 113.162 19.4676V19.4918Z" fill="#05264E"/>
<path fill-rule="evenodd" clip-rule="evenodd" d="M112.48 19.2081C112.431 19.1061 112.361 19.0156 112.275 18.9425C112.387 18.8991 112.482 18.8208 112.546 18.7192C112.606 18.6299 112.637 18.5247 112.637 18.4174C112.638 18.3291 112.618 18.2419 112.576 18.1638C112.534 18.0897 112.474 18.0274 112.401 17.9828C112.297 17.9361 112.183 17.9154 112.069 17.9224H111.466V19.7815H111.762V18.9968H111.979C112.009 18.9968 112.057 19.0572 112.13 19.1779L112.19 19.2926L112.444 19.7815H112.776L112.468 19.2081H112.48ZM111.979 18.7735H111.774V18.1699H111.997C112.07 18.1618 112.144 18.1766 112.208 18.2121C112.248 18.2386 112.281 18.2737 112.305 18.3147C112.325 18.3604 112.335 18.4098 112.335 18.4596C112.336 18.5446 112.308 18.6275 112.257 18.695C112.221 18.7321 112.178 18.7606 112.13 18.7783C112.081 18.7961 112.03 18.8027 111.979 18.7976V18.7735Z" fill="#05264E"/>
</g>
<defs>
<clipPath id="clip0_1_864">
<rect width="112.927" height="20.2446" fill="white" transform="translate(0.640137 0.357788)"/>
</clipPath>
</defs>
</svg>
