<svg width="36" height="42" viewBox="0 0 36 42" fill="none" xmlns="http://www.w3.org/2000/svg">
<path d="M29.7753 5.25H6.1875C4.79557 5.25148 3.46107 5.80508 2.47683 6.78933C1.49258 7.77357 0.938984 9.10807 0.9375 10.5V35.4375C0.939542 37.1774 1.6316 38.8454 2.86187 40.0756C4.09213 41.3059 5.76014 41.998 7.5 42H28.4628C30.2027 41.998 31.8707 41.3059 33.101 40.0756C34.3312 38.8454 35.0233 37.1774 35.0253 35.4375V10.5C35.0238 9.10807 34.4702 7.77357 33.486 6.78933C32.5018 5.80508 31.1673 5.25148 29.7753 5.25V5.25Z" fill="#E6ECFF"/>
<path d="M27.1875 2.625H24.0613L23.1116 0.725458C23.0026 0.507423 22.835 0.32406 22.6276 0.195924C22.4202 0.0677888 22.1813 -5.4507e-05 21.9375 3.28579e-08H14.0625C13.8187 -5.4507e-05 13.5798 0.0677888 13.3724 0.195924C13.165 0.32406 12.9974 0.507423 12.8884 0.725458L11.9387 2.625H8.8125C8.11655 2.6258 7.44933 2.90261 6.95722 3.39472C6.46511 3.88683 6.1883 4.55405 6.1875 5.25V7.875C6.1883 8.57095 6.46511 9.23817 6.95722 9.73028C7.44933 10.2224 8.11655 10.4992 8.8125 10.5H27.1875C27.8834 10.4992 28.5507 10.2224 29.0428 9.73028C29.5349 9.23817 29.8117 8.57095 29.8125 7.875V5.25C29.8117 4.55405 29.5349 3.88683 29.0428 3.39472C28.5507 2.90261 27.8834 2.6258 27.1875 2.625V2.625Z" fill="#578BFF"/>
<path d="M28.5 17.0625H7.5C7.1519 17.0625 6.81806 16.9242 6.57192 16.6781C6.32578 16.4319 6.1875 16.0981 6.1875 15.75C6.1875 15.4019 6.32578 15.0681 6.57192 14.8219C6.81806 14.5758 7.1519 14.4375 7.5 14.4375H28.5C28.8481 14.4375 29.1819 14.5758 29.4281 14.8219C29.6742 15.0681 29.8125 15.4019 29.8125 15.75C29.8125 16.0981 29.6742 16.4319 29.4281 16.6781C29.1819 16.9242 28.8481 17.0625 28.5 17.0625Z" fill="#578BFF"/>
<path d="M19.3125 22.3125H7.5C7.1519 22.3125 6.81806 22.1742 6.57192 21.9281C6.32578 21.6819 6.1875 21.3481 6.1875 21C6.1875 20.6519 6.32578 20.3181 6.57192 20.0719C6.81806 19.8258 7.1519 19.6875 7.5 19.6875H19.3125C19.6606 19.6875 19.9944 19.8258 20.2406 20.0719C20.4867 20.3181 20.625 20.6519 20.625 21C20.625 21.3481 20.4867 21.6819 20.2406 21.9281C19.9944 22.1742 19.6606 22.3125 19.3125 22.3125Z" fill="#578BFF"/>
<path d="M15.375 27.5625H7.5C7.1519 27.5625 6.81806 27.4242 6.57192 27.1781C6.32578 26.9319 6.1875 26.5981 6.1875 26.25C6.1875 25.9019 6.32578 25.5681 6.57192 25.3219C6.81806 25.0758 7.1519 24.9375 7.5 24.9375H15.375C15.7231 24.9375 16.0569 25.0758 16.3031 25.3219C16.5492 25.5681 16.6875 25.9019 16.6875 26.25C16.6875 26.5981 16.5492 26.9319 16.3031 27.1781C16.0569 27.4242 15.7231 27.5625 15.375 27.5625Z" fill="#578BFF"/>
<path d="M25.875 32.8125H7.5C7.1519 32.8125 6.81806 32.6742 6.57192 32.4281C6.32578 32.1819 6.1875 31.8481 6.1875 31.5C6.1875 31.1519 6.32578 30.8181 6.57192 30.5719C6.81806 30.3258 7.1519 30.1875 7.5 30.1875H25.875C26.2231 30.1875 26.5569 30.3258 26.8031 30.5719C27.0492 30.8181 27.1875 31.1519 27.1875 31.5C27.1875 31.8481 27.0492 32.1819 26.8031 32.4281C26.5569 32.6742 26.2231 32.8125 25.875 32.8125Z" fill="#578BFF"/>
<path d="M21.9375 38.0625H7.5C7.1519 38.0625 6.81806 37.9242 6.57192 37.6781C6.32578 37.4319 6.1875 37.0981 6.1875 36.75C6.1875 36.4019 6.32578 36.0681 6.57192 35.8219C6.81806 35.5758 7.1519 35.4375 7.5 35.4375H21.9375C22.2856 35.4375 22.6194 35.5758 22.8656 35.8219C23.1117 36.0681 23.25 36.4019 23.25 36.75C23.25 37.0981 23.1117 37.4319 22.8656 37.6781C22.6194 37.9242 22.2856 38.0625 21.9375 38.0625Z" fill="#578BFF"/>
</svg>
