<svg width="18" height="18" viewBox="0 0 18 18" fill="none" xmlns="http://www.w3.org/2000/svg">
<path d="M8.25 3.75H4.5C4.10218 3.75 3.72064 3.90803 3.43934 4.18934C3.15804 4.47064 3 4.85217 3 5.25V13.5C3 13.8978 3.15804 14.2794 3.43934 14.5607C3.72064 14.842 4.10218 15 4.5 15H12.75C13.1478 15 13.5294 14.842 13.8107 14.5607C14.092 14.2794 14.25 13.8978 14.25 13.5V9.75M13.1895 2.6895C13.3279 2.54623 13.4934 2.43196 13.6764 2.35335C13.8594 2.27473 14.0562 2.23335 14.2554 2.23162C14.4546 2.22989 14.6521 2.26785 14.8364 2.34327C15.0208 2.41869 15.1883 2.53007 15.3291 2.67091C15.4699 2.81175 15.5813 2.97922 15.6567 3.16357C15.7322 3.34791 15.7701 3.54543 15.7684 3.7446C15.7666 3.94377 15.7253 4.1406 15.6467 4.32361C15.568 4.50661 15.4538 4.67213 15.3105 4.8105L8.871 11.25H6.75V9.129L13.1895 2.6895Z" stroke="white" stroke-width="1.41667" stroke-linecap="round" stroke-linejoin="round"/>
</svg>
