<svg width="36" height="40" viewBox="0 0 36 40" fill="none" xmlns="http://www.w3.org/2000/svg">
<path d="M35.0625 25.25C34.8885 25.25 34.7215 25.3191 34.5985 25.4422C34.4754 25.5653 34.4062 25.7322 34.4062 25.9062V30.5C34.4045 32.0659 33.7817 33.5672 32.6744 34.6744C31.5672 35.7817 30.0659 36.4045 28.5 36.4062H19.9688C19.7947 36.4062 19.6278 36.4754 19.5047 36.5985C19.3816 36.7215 19.3125 36.8885 19.3125 37.0625C19.3125 37.2365 19.3816 37.4035 19.5047 37.5265C19.6278 37.6496 19.7947 37.7188 19.9688 37.7188H28.5C30.4139 37.7166 32.2487 36.9553 33.602 35.602C34.9553 34.2487 35.7166 32.4139 35.7188 30.5V25.9062C35.7188 25.7322 35.6496 25.5653 35.5265 25.4422C35.4035 25.3191 35.2365 25.25 35.0625 25.25Z" fill="#4294FF"/>
<path d="M32.4375 21.3125C32.2635 21.3125 32.0965 21.2434 31.9735 21.1203C31.8504 20.9972 31.7812 20.8303 31.7812 20.6562V15.4062C31.7812 11.7512 30.3293 8.24592 27.7448 5.66143C25.1603 3.07695 21.655 1.625 18 1.625C14.345 1.625 10.8397 3.07695 8.25518 5.66143C5.6707 8.24592 4.21875 11.7512 4.21875 15.4062V20.6562C4.21875 20.8303 4.14961 20.9972 4.02654 21.1203C3.90347 21.2434 3.73655 21.3125 3.5625 21.3125C3.38845 21.3125 3.22153 21.2434 3.09846 21.1203C2.97539 20.9972 2.90625 20.8303 2.90625 20.6562V15.4062C2.90625 11.4031 4.49648 7.56398 7.32711 4.73336C10.1577 1.90273 13.9969 0.3125 18 0.3125C22.0031 0.3125 25.8423 1.90273 28.6729 4.73336C31.5035 7.56398 33.0938 11.4031 33.0938 15.4062V20.6562C33.0938 20.8303 33.0246 20.9972 32.9015 21.1203C32.7785 21.2434 32.6115 21.3125 32.4375 21.3125Z" fill="#4294FF"/>
<path d="M33.75 20H29.8125C29.6385 20 29.4715 20.0691 29.3485 20.1922C29.2254 20.3153 29.1562 20.4822 29.1562 20.6562V27.2188C29.1562 27.3928 29.2254 27.5597 29.3485 27.6828C29.4715 27.8059 29.6385 27.875 29.8125 27.875H33.75C34.272 27.8744 34.7724 27.6668 35.1415 27.2977C35.5106 26.9286 35.7182 26.4282 35.7188 25.9062V21.9688C35.7182 21.4468 35.5106 20.9464 35.1415 20.5773C34.7724 20.2082 34.272 20.0006 33.75 20V20Z" fill="#E6ECFF"/>
<path d="M6.1875 20H2.25C1.72803 20.0006 1.2276 20.2082 0.858517 20.5773C0.489429 20.9464 0.281823 21.4468 0.28125 21.9688V25.9062C0.281823 26.4282 0.489429 26.9286 0.858517 27.2977C1.2276 27.6668 1.72803 27.8744 2.25 27.875H6.1875C6.36155 27.875 6.52847 27.8059 6.65154 27.6828C6.77461 27.5597 6.84375 27.3928 6.84375 27.2188V20.6562C6.84375 20.4822 6.77461 20.3153 6.65154 20.1922C6.52847 20.0691 6.36155 20 6.1875 20V20Z" fill="#E6ECFF"/>
<path d="M25.1321 2.07058C24.139 1.51786 23.0784 1.09624 21.9769 0.816294C18.5143 -0.125116 14.8297 0.197344 11.5833 1.72589C8.33691 3.25443 5.74099 5.88913 4.26074 9.15782L6.57652 11.4732C6.65323 11.5499 6.74776 11.6064 6.85165 11.6376C6.95553 11.6688 7.06554 11.6738 7.17182 11.6521C7.2781 11.6304 7.37734 11.5826 7.46066 11.5132C7.54398 11.4437 7.60879 11.3547 7.64929 11.2541C8.47758 9.18626 9.90624 7.41392 11.7511 6.16554C13.596 4.91717 15.7724 4.24997 18 4.24997C20.2275 4.24997 22.404 4.91717 24.2489 6.16554C26.0937 7.41392 27.5224 9.18626 28.3507 11.2541C28.3911 11.3548 28.4559 11.4439 28.5392 11.5134C28.6225 11.5829 28.7218 11.6307 28.8281 11.6524C28.9344 11.6741 29.0445 11.6691 29.1484 11.6378C29.2523 11.6066 29.3468 11.55 29.4235 11.4732L31.737 9.15927C30.3627 6.14243 28.0444 3.65441 25.1321 2.07058V2.07058Z" fill="#4294FF"/>
<path d="M18 39.6875C19.4497 39.6875 20.625 38.5122 20.625 37.0625C20.625 35.6128 19.4497 34.4375 18 34.4375C16.5503 34.4375 15.375 35.6128 15.375 37.0625C15.375 38.5122 16.5503 39.6875 18 39.6875Z" fill="#4294FF"/>
<path d="M10.7812 16.0625H7.5C6.41269 16.0625 5.53125 16.9439 5.53125 18.0312V29.8438C5.53125 30.9311 6.41269 31.8125 7.5 31.8125H10.7812C11.8686 31.8125 12.75 30.9311 12.75 29.8438V18.0312C12.75 16.9439 11.8686 16.0625 10.7812 16.0625Z" fill="#E6ECFF"/>
<path d="M28.5 16.0625H25.2188C24.1314 16.0625 23.25 16.9439 23.25 18.0312V29.8438C23.25 30.9311 24.1314 31.8125 25.2188 31.8125H28.5C29.5873 31.8125 30.4688 30.9311 30.4688 29.8438V18.0312C30.4688 16.9439 29.5873 16.0625 28.5 16.0625Z" fill="#E6ECFF"/>
</svg>
