<svg width="36" height="40" viewBox="0 0 36 40" fill="none" xmlns="http://www.w3.org/2000/svg">
<path d="M18 5.5625C15.2885 5.56092 12.6505 6.44376 10.4862 8.07708C8.32189 9.7104 6.74936 12.0051 6.00717 14.613C5.26498 17.2209 5.39365 19.9997 6.37365 22.5279C7.35365 25.0561 9.1315 27.1956 11.4375 28.6219V33.7813C11.4375 33.9553 11.5066 34.1222 11.6297 34.2453C11.7528 34.3684 11.9197 34.4375 12.0937 34.4375H23.9062C24.0803 34.4375 24.2472 34.3684 24.3703 34.2453C24.4934 34.1222 24.5625 33.9553 24.5625 33.7813V28.6219C26.8685 27.1956 28.6463 25.0561 29.6263 22.5279C30.6063 19.9997 30.735 17.2209 29.9928 14.613C29.2506 12.0051 27.6781 9.7104 25.5138 8.07708C23.3495 6.44376 20.7115 5.56092 18 5.5625V5.5625Z" fill="#E6ECFF"/>
<path d="M17.9998 5.5625C16.2859 5.56169 14.5903 5.91512 13.0194 6.60061C11.4486 7.2861 10.0363 8.28885 8.87134 9.54594C8.83794 10.9993 8.90246 12.4532 9.06447 13.8979L9.06165 13.9034C9.0648 13.9302 9.06992 13.9584 9.07313 13.9853C9.6542 20.0308 12.4002 25.6628 16.8054 29.8438H24.5623V28.6231C26.8683 27.1967 28.6462 25.0571 29.6262 22.5288C30.6062 20.0006 30.7349 17.2217 29.9927 14.6137C29.2505 12.0057 27.678 9.71091 25.5137 8.07747C23.3493 6.44403 20.7113 5.56106 17.9998 5.5625V5.5625Z" fill="#E6ECFF"/>
<path d="M8.8125 18.6875C8.63845 18.6875 8.47153 18.6184 8.34846 18.4953C8.22539 18.3722 8.15625 18.2053 8.15625 18.0312C8.1592 15.4214 9.19726 12.9193 11.0427 11.0739C12.8881 9.22851 15.3902 8.19045 18 8.1875C18.174 8.1875 18.341 8.25664 18.464 8.37971C18.5871 8.50278 18.6562 8.6697 18.6562 8.84375C18.6562 9.0178 18.5871 9.18472 18.464 9.30779C18.341 9.43086 18.174 9.5 18 9.5C15.7381 9.5025 13.5696 10.4021 11.9703 12.0015C10.3709 13.6009 9.47125 15.7694 9.46875 18.0312C9.46875 18.2053 9.39961 18.3722 9.27654 18.4953C9.15347 18.6184 8.98655 18.6875 8.8125 18.6875Z" fill="#4294FF"/>
<path d="M18 4.25C17.826 4.25 17.659 4.18086 17.536 4.05779C17.4129 3.93472 17.3438 3.7678 17.3438 3.59375V0.96875C17.3438 0.794702 17.4129 0.627782 17.536 0.504711C17.659 0.38164 17.826 0.3125 18 0.3125C18.174 0.3125 18.341 0.38164 18.464 0.504711C18.5871 0.627782 18.6562 0.794702 18.6562 0.96875V3.59375C18.6562 3.7678 18.5871 3.93472 18.464 4.05779C18.341 4.18086 18.174 4.25 18 4.25Z" fill="#4294FF"/>
<path d="M28.0361 7.99521C27.9751 7.9343 27.9267 7.86197 27.8937 7.78236C27.8607 7.70275 27.8437 7.61742 27.8438 7.53124C27.8437 7.44506 27.8607 7.35973 27.8937 7.28012C27.9267 7.20051 27.9751 7.12818 28.0361 7.06727L30.0048 5.09852C30.1286 4.97898 30.2943 4.91284 30.4664 4.91433C30.6385 4.91583 30.8031 4.98484 30.9247 5.10652C31.0464 5.22819 31.1154 5.39279 31.1169 5.56485C31.1184 5.73692 31.0523 5.90269 30.9327 6.02646L28.964 7.99521C28.9031 8.05617 28.8308 8.10454 28.7511 8.13753C28.6715 8.17053 28.5862 8.18752 28.5 8.18752C28.4138 8.18752 28.3285 8.17053 28.2489 8.13753C28.1693 8.10454 28.097 8.05617 28.0361 7.99521V7.99521Z" fill="#4294FF"/>
<path d="M35.0625 18.6875H32.4375C32.2635 18.6875 32.0965 18.6184 31.9735 18.4953C31.8504 18.3722 31.7812 18.2053 31.7812 18.0312C31.7812 17.8572 31.8504 17.6903 31.9735 17.5672C32.0965 17.4441 32.2635 17.375 32.4375 17.375H35.0625C35.2365 17.375 35.4035 17.4441 35.5265 17.5672C35.6496 17.6903 35.7188 17.8572 35.7188 18.0312C35.7188 18.2053 35.6496 18.3722 35.5265 18.4953C35.4035 18.6184 35.2365 18.6875 35.0625 18.6875Z" fill="#4294FF"/>
<path d="M7.03627 7.99521L5.06752 6.02646C4.94798 5.90269 4.88183 5.73692 4.88333 5.56485C4.88482 5.39279 4.95384 5.22819 5.07551 5.10652C5.19719 4.98484 5.36178 4.91583 5.53385 4.91433C5.70592 4.91284 5.87169 4.97898 5.99546 5.09852L7.96421 7.06727C8.08375 7.19104 8.14989 7.35681 8.1484 7.52888C8.1469 7.70095 8.07789 7.86554 7.95621 7.98722C7.83454 8.10889 7.66994 8.17791 7.49787 8.1794C7.32581 8.1809 7.16004 8.11475 7.03627 7.99521V7.99521Z" fill="#4294FF"/>
<path d="M3.5625 18.6875H0.9375C0.763452 18.6875 0.596532 18.6184 0.473461 18.4953C0.350391 18.3722 0.28125 18.2053 0.28125 18.0312C0.28125 17.8572 0.350391 17.6903 0.473461 17.5672C0.596532 17.4441 0.763452 17.375 0.9375 17.375H3.5625C3.73655 17.375 3.90347 17.4441 4.02654 17.5672C4.14961 17.6903 4.21875 17.8572 4.21875 18.0312C4.21875 18.2053 4.14961 18.3722 4.02654 18.4953C3.90347 18.6184 3.73655 18.6875 3.5625 18.6875Z" fill="#4294FF"/>
<path d="M18.6564 8.84375C18.6559 9.01764 18.5866 9.18427 18.4636 9.30723C18.3407 9.4302 18.174 9.4995 18.0001 9.5C15.9407 9.50099 13.9511 10.247 12.3987 11.6004C10.8463 12.9537 9.83598 14.823 9.5542 16.8631C9.33107 15.8459 9.17357 14.855 9.06201 13.9034C9.85209 12.1978 11.1132 10.7536 12.6968 9.74089C14.2804 8.72819 16.1204 8.18922 18.0001 8.1875C18.174 8.188 18.3407 8.2573 18.4636 8.38027C18.5866 8.50323 18.6559 8.66986 18.6564 8.84375V8.84375Z" fill="#4294FF"/>
<path d="M21.7455 22.8173C21.6845 22.7563 21.6122 22.708 21.5326 22.675C21.453 22.642 21.3677 22.625 21.2815 22.625C21.1953 22.625 21.11 22.642 21.0304 22.675C20.9508 22.708 20.8784 22.7563 20.8175 22.8173L18.0002 25.6345L15.183 22.8173C15.0592 22.6978 14.8934 22.6316 14.7213 22.6331C14.5493 22.6346 14.3847 22.7036 14.263 22.8253C14.1413 22.947 14.0723 23.1116 14.0708 23.2836C14.0693 23.4557 14.1355 23.6215 14.255 23.7452L17.344 26.8343V30.5C17.344 30.6741 17.4131 30.841 17.5362 30.9641C17.6593 31.0871 17.8262 31.1563 18.0002 31.1563C18.1743 31.1563 18.3412 31.0871 18.4643 30.9641C18.5873 30.841 18.6565 30.6741 18.6565 30.5V26.8343L21.7455 23.7452C21.8064 23.6843 21.8548 23.612 21.8878 23.5324C21.9208 23.4528 21.9378 23.3675 21.9378 23.2813C21.9378 23.1951 21.9208 23.1098 21.8878 23.0302C21.8548 22.9505 21.8064 22.8782 21.7455 22.8173V22.8173Z" fill="#4294FF"/>
<path d="M21.9375 33.125H14.0625C13.8885 33.125 13.7215 33.1941 13.5985 33.3172C13.4754 33.4403 13.4062 33.6072 13.4062 33.7812V35.0938C13.4062 36.3121 13.8902 37.4805 14.7517 38.342C15.6132 39.2035 16.7817 39.6875 18 39.6875C19.2183 39.6875 20.3868 39.2035 21.2483 38.342C22.1098 37.4805 22.5938 36.3121 22.5938 35.0938V33.7812C22.5938 33.6072 22.5246 33.4403 22.4015 33.3172C22.2785 33.1941 22.1115 33.125 21.9375 33.125Z" fill="#578BFF"/>
<path d="M22.594 33.965V35.0938C22.5963 35.3136 22.5787 35.5333 22.5415 35.75H13.459C13.4217 35.5333 13.4041 35.3136 13.4065 35.0938V33.7812H22.2593C22.3708 33.8469 22.4824 33.9059 22.594 33.965Z" fill="#578BFF"/>
<path d="M24.5625 29.8438V33.7812C24.562 33.9551 24.4927 34.1218 24.3697 34.2447C24.2468 34.3677 24.0801 34.437 23.9062 34.4375H12.0938C11.9199 34.437 11.7532 34.3677 11.6303 34.2447C11.5073 34.1218 11.438 33.9551 11.4375 33.7812V29.8438H24.5625Z" fill="#4294FF"/>
<path d="M24.5625 29.8438V33.7812C24.562 33.9551 24.4927 34.1218 24.3698 34.2447C24.2468 34.3677 24.0802 34.437 23.9063 34.4375H23.4994C21.0548 33.2431 18.7993 31.6953 16.8057 29.8438H24.5625Z" fill="#4294FF"/>
</svg>
