<svg width="19" height="20" viewBox="0 0 19 20" fill="none" xmlns="http://www.w3.org/2000/svg">
<g clip-path="url(#clip0_1438_3819)">
<path d="M9.49994 19.5064L8.94577 19.0314C8.18181 18.3917 1.51123 12.6307 1.51123 8.41669C1.51123 6.29795 2.3529 4.26599 3.85107 2.76782C5.34924 1.26964 7.3812 0.427979 9.49994 0.427979C11.6187 0.427979 13.6506 1.26964 15.1488 2.76782C16.647 4.26599 17.4886 6.29795 17.4886 8.41669C17.4886 12.6307 10.8181 18.3917 10.0573 19.0345L9.49994 19.5064ZM9.49994 2.1554C7.83992 2.15728 6.24843 2.81756 5.07462 3.99137C3.90081 5.16518 3.24053 6.75667 3.23865 8.41669C3.23865 11.064 7.34265 15.2931 9.49994 17.2287C11.6572 15.2923 15.7612 11.0609 15.7612 8.41669C15.7593 6.75667 15.0991 5.16518 13.9253 3.99137C12.7514 2.81756 11.16 2.15728 9.49994 2.1554Z" fill="#A0ABB8"/>
<path d="M9.50016 11.5833C8.87386 11.5833 8.26161 11.3976 7.74086 11.0497C7.2201 10.7017 6.81422 10.2071 6.57455 9.6285C6.33487 9.04987 6.27216 8.41316 6.39434 7.79888C6.51653 7.18461 6.81813 6.62036 7.26099 6.1775C7.70386 5.73463 8.26811 5.43303 8.88238 5.31085C9.49665 5.18866 10.1334 5.25137 10.712 5.49105C11.2906 5.73073 11.7852 6.13661 12.1332 6.65736C12.4811 7.17812 12.6668 7.79036 12.6668 8.41667C12.6668 9.25652 12.3332 10.062 11.7393 10.6558C11.1455 11.2497 10.34 11.5833 9.50016 11.5833ZM9.50016 6.83333C9.18701 6.83333 8.88089 6.9262 8.62051 7.10017C8.36013 7.27415 8.15719 7.52144 8.03736 7.81075C7.91752 8.10007 7.88616 8.41842 7.94725 8.72556C8.00835 9.0327 8.15915 9.31482 8.38058 9.53625C8.60201 9.75769 8.88414 9.90849 9.19127 9.96958C9.49841 10.0307 9.81676 9.99932 10.1061 9.87948C10.3954 9.75964 10.6427 9.5567 10.8167 9.29632C10.9906 9.03594 11.0835 8.72982 11.0835 8.41667C11.0835 7.99674 10.9167 7.59402 10.6198 7.29708C10.3228 7.00015 9.92009 6.83333 9.50016 6.83333Z" fill="#A0ABB8"/>
</g>
<defs>
<clipPath id="clip0_1438_3819">
<rect width="19" height="19" fill="white" transform="translate(0 0.5)"/>
</clipPath>
</defs>
</svg>
