<svg width="138" height="36" viewBox="0 0 138 36" fill="none" xmlns="http://www.w3.org/2000/svg">
<path d="M0 10.5655L14.3072 2.32581V19.7042L0 27.1948V10.5655Z" fill="#91A9FF"/>
<path d="M28.5396 10.5655L14.2324 2.32581V19.7042L28.5396 27.1948V10.5655Z" fill="#5E81FF"/>
<path d="M14.2321 19.7041L28.5393 27.1948L14.2321 34.6854L-0.000197813 27.1948L14.2321 19.7041Z" fill="#3C65F5"/>
<path d="M35.4646 29.3524V25.4074H36.7326C37.578 25.4074 38.2543 25.1725 38.7615 24.7029C39.2875 24.2145 39.5505 23.5757 39.5505 22.7867V8.35909H43.9183V22.5895C43.9183 23.9421 43.6271 25.1256 43.0447 26.14C42.4624 27.1545 41.6264 27.9435 40.5368 28.507C39.466 29.0706 38.1979 29.3524 36.7326 29.3524H35.4646ZM54.8935 29.6906C53.3719 29.6906 51.9817 29.343 50.723 28.6479C49.4832 27.9529 48.4875 27.0042 47.7361 25.8019C47.0034 24.5808 46.6371 23.2 46.6371 21.6596C46.6371 20.1003 47.0034 18.7196 47.7361 17.5173C48.4875 16.3149 49.4832 15.3663 50.723 14.6712C51.9817 13.9761 53.3719 13.6286 54.8935 13.6286C56.4152 13.6286 57.796 13.9761 59.0358 14.6712C60.2757 15.3663 61.262 16.3149 61.9946 17.5173C62.7461 18.7196 63.1218 20.1003 63.1218 21.6596C63.1218 23.2 62.7461 24.5808 61.9946 25.8019C61.262 27.0042 60.2757 27.9529 59.0358 28.6479C57.796 29.343 56.4152 29.6906 54.8935 29.6906ZM54.8935 25.8864C55.6638 25.8864 56.3307 25.7079 56.8942 25.351C57.4766 24.9941 57.9275 24.4962 58.2468 23.8575C58.585 23.2188 58.754 22.4861 58.754 21.6596C58.754 20.833 58.585 20.1097 58.2468 19.4898C57.9275 18.8511 57.4766 18.3532 56.8942 17.9963C56.3307 17.6206 55.6638 17.4327 54.8935 17.4327C54.1233 17.4327 53.447 17.6206 52.8646 17.9963C52.2823 18.3532 51.822 18.8511 51.4839 19.4898C51.1645 20.1097 51.0048 20.833 51.0048 21.6596C51.0048 22.4861 51.1645 23.2188 51.4839 23.8575C51.822 24.4962 52.2823 24.9941 52.8646 25.351C53.447 25.7079 54.1233 25.8864 54.8935 25.8864ZM74.2346 29.6906C73.1826 29.6906 72.2058 29.5027 71.304 29.127C70.4211 28.7325 69.7072 28.1595 69.1624 27.4081L69.5569 26.5345V29.3524H65.6119V8.02094H69.8387V16.8973L69.1906 16.0519C69.6978 15.2817 70.3835 14.69 71.2477 14.2767C72.1306 13.8446 73.1357 13.6286 74.2628 13.6286C75.7281 13.6286 77.0525 13.9855 78.2361 14.6994C79.4196 15.4132 80.3589 16.3807 81.054 17.6018C81.749 18.8041 82.0966 20.1567 82.0966 21.6596C82.0966 23.1437 81.749 24.4962 81.054 25.7173C80.3777 26.9384 79.4478 27.9059 78.2642 28.6198C77.0807 29.3336 75.7375 29.6906 74.2346 29.6906ZM73.7274 25.8864C74.5164 25.8864 75.2115 25.7079 75.8127 25.351C76.4138 24.9941 76.8835 24.4962 77.2216 23.8575C77.5598 23.2188 77.7288 22.4861 77.7288 21.6596C77.7288 20.833 77.5598 20.1097 77.2216 19.4898C76.8835 18.8511 76.4138 18.3532 75.8127 17.9963C75.2115 17.6206 74.5164 17.4327 73.7274 17.4327C72.976 17.4327 72.2997 17.6112 71.6985 17.9681C71.1162 18.325 70.6559 18.8229 70.3178 19.4616C69.9984 20.1003 69.8387 20.833 69.8387 21.6596C69.8387 22.4861 69.9984 23.2188 70.3178 23.8575C70.6559 24.4962 71.1162 24.9941 71.6985 25.351C72.2997 25.7079 72.976 25.8864 73.7274 25.8864ZM84.8821 29.3524V8.35909H93.7585C95.205 8.35909 96.4449 8.6033 97.4781 9.09174C98.5113 9.58018 99.3003 10.2847 99.8451 11.2052C100.39 12.1069 100.662 13.2059 100.662 14.5021C100.662 15.4226 100.409 16.3056 99.9015 17.1509C99.3943 17.9775 98.5583 18.6726 97.3936 19.2362V17.0946C98.5019 17.5266 99.3567 18.0433 99.9579 18.6444C100.559 19.2456 100.972 19.9031 101.198 20.6169C101.423 21.312 101.536 22.0447 101.536 22.8149C101.536 24.8814 100.85 26.4876 99.4788 27.6335C98.1074 28.7794 96.2007 29.3524 93.7585 29.3524H84.8821ZM89.2499 25.5483H94.2657C95.1486 25.5483 95.8531 25.2946 96.3791 24.7874C96.9051 24.2802 97.1681 23.6227 97.1681 22.8149C97.1681 21.9883 96.9051 21.3214 96.3791 20.8142C95.8531 20.307 95.1486 20.0534 94.2657 20.0534H89.2499V25.5483ZM89.2499 16.2492H94.0685C94.7448 16.2492 95.2802 16.0613 95.6747 15.6856C96.0879 15.2911 96.2946 14.7745 96.2946 14.1358C96.2946 13.4971 96.0879 12.9898 95.6747 12.6141C95.2802 12.2196 94.7448 12.0224 94.0685 12.0224H89.2499V16.2492ZM111.664 29.6906C110.143 29.6906 108.752 29.343 107.494 28.6479C106.254 27.9529 105.258 27.0042 104.507 25.8019C103.774 24.5808 103.408 23.2 103.408 21.6596C103.408 20.1003 103.774 18.7196 104.507 17.5173C105.258 16.3149 106.254 15.3663 107.494 14.6712C108.752 13.9761 110.143 13.6286 111.664 13.6286C113.186 13.6286 114.567 13.9761 115.807 14.6712C117.046 15.3663 118.033 16.3149 118.765 17.5173C119.517 18.7196 119.892 20.1003 119.892 21.6596C119.892 23.2 119.517 24.5808 118.765 25.8019C118.033 27.0042 117.046 27.9529 115.807 28.6479C114.567 29.343 113.186 29.6906 111.664 29.6906ZM111.664 25.8864C112.434 25.8864 113.101 25.7079 113.665 25.351C114.247 24.9941 114.698 24.4962 115.018 23.8575C115.356 23.2188 115.525 22.4861 115.525 21.6596C115.525 20.833 115.356 20.1097 115.018 19.4898C114.698 18.8511 114.247 18.3532 113.665 17.9963C113.101 17.6206 112.434 17.4327 111.664 17.4327C110.894 17.4327 110.218 17.6206 109.635 17.9963C109.053 18.3532 108.593 18.8511 108.255 19.4898C107.935 20.1097 107.776 20.833 107.776 21.6596C107.776 22.4861 107.935 23.2188 108.255 23.8575C108.593 24.4962 109.053 24.9941 109.635 25.351C110.218 25.7079 110.894 25.8864 111.664 25.8864ZM120.621 29.3524L126.003 21.6314L120.592 13.9667H125.495L129.553 19.9406H127.412L131.469 13.9667H136.373L130.962 21.6314L136.316 29.3524H131.441L127.468 23.3785H129.497L125.524 29.3524H120.621Z" fill="#05264E"/>
</svg>
