<svg width="42" height="42" viewBox="0 0 42 42" fill="none" xmlns="http://www.w3.org/2000/svg">
<path d="M28.6826 25.1298L25.4013 21.8486C25.3352 21.7816 25.2552 21.7298 25.167 21.6969C25.0788 21.664 24.9845 21.6506 24.8906 21.6578C24.7968 21.6645 24.7056 21.6912 24.6231 21.7363C24.5406 21.7813 24.4687 21.8435 24.4124 21.9188C23.7035 22.8642 22.8636 23.7038 21.9181 24.4125C21.843 24.469 21.7809 24.541 21.736 24.6235C21.6912 24.7061 21.6645 24.7973 21.6579 24.891C21.6513 24.9848 21.6648 25.0788 21.6977 25.1669C21.7305 25.2549 21.7819 25.3349 21.8483 25.4014L25.1295 28.6826C25.1904 28.7436 25.2628 28.7919 25.3424 28.8249C25.422 28.8579 25.5073 28.8749 25.5935 28.8749C25.6797 28.8749 25.765 28.8579 25.8446 28.8249C25.9242 28.7919 25.9965 28.7436 26.0575 28.6826L28.6825 26.0576C28.7434 25.9967 28.7918 25.9244 28.8248 25.8448C28.8578 25.7652 28.8748 25.6799 28.8748 25.5937C28.8748 25.5076 28.8578 25.4223 28.8248 25.3426C28.7919 25.263 28.7435 25.1907 28.6826 25.1298V25.1298Z" fill="#4294FF"/>
<path d="M40.0641 33.8862L29.9952 23.8173C29.8698 23.6987 29.7038 23.6327 29.5313 23.6327C29.3587 23.6327 29.1927 23.6987 29.0673 23.8173L23.8173 29.0673C23.7563 29.1282 23.708 29.2005 23.675 29.2801C23.642 29.3597 23.625 29.4451 23.625 29.5312C23.625 29.6174 23.642 29.7028 23.675 29.7824C23.708 29.862 23.7563 29.9343 23.8173 29.9952L33.886 40.0641C34.7064 40.8775 35.8157 41.3328 36.971 41.3304C38.1264 41.3279 39.2337 40.8679 40.0507 40.051C40.8677 39.234 41.3278 38.1267 41.3303 36.9714C41.3328 35.816 40.8775 34.7067 40.0641 33.8862V33.8862Z" fill="#4294FF"/>
<path d="M14.4375 28.2188C22.0487 28.2188 28.2188 22.0487 28.2188 14.4375C28.2188 6.82633 22.0487 0.65625 14.4375 0.65625C6.82633 0.65625 0.65625 6.82633 0.65625 14.4375C0.65625 22.0487 6.82633 28.2188 14.4375 28.2188Z" fill="#E6ECFF"/>
<path d="M28.2186 14.4375C28.2194 17.5437 27.1706 20.559 25.2423 22.9942C23.314 25.4294 20.6195 27.1415 17.5958 27.8528C14.5722 28.564 11.3969 28.2327 8.5852 26.9125C5.77353 25.5924 3.49045 23.3608 2.10645 20.58C8.41957 23.4741 17.6464 23.8416 27.9627 11.7863C28.1345 12.6595 28.2203 13.5475 28.2186 14.4375V14.4375Z" fill="#C8D5F8"/>
<path d="M14.4375 25.5938C20.5989 25.5938 25.5938 20.5989 25.5938 14.4375C25.5938 8.27607 20.5989 3.28125 14.4375 3.28125C8.27607 3.28125 3.28125 8.27607 3.28125 14.4375C3.28125 20.5989 8.27607 25.5938 14.4375 25.5938Z" fill="#E6ECFF"/>
<path d="M25.5937 14.3588V14.4375C25.5957 16.6912 24.9144 18.8925 23.6399 20.7511C22.3653 22.6097 20.5573 24.0383 18.4544 24.8485C16.3514 25.6587 14.0522 25.8124 11.8601 25.2894C9.66801 24.7664 7.68593 23.5912 6.17529 21.9188C11.5434 23.0213 18.2437 21.7547 25.5937 14.3588Z" fill="#C8D5F8"/>
<path d="M11.1562 18.375V25.095C9.70877 24.6516 8.36833 23.9144 7.21875 22.9294V18.375C7.21925 18.2011 7.28855 18.0345 7.41152 17.9115C7.53448 17.7886 7.70111 17.7193 7.875 17.7188H10.5C10.6739 17.7193 10.8405 17.7886 10.9635 17.9115C11.0864 18.0345 11.1557 18.2011 11.1562 18.375V18.375Z" fill="#4294FF"/>
<path d="M16.4062 15.0937V25.4166C15.1044 25.6528 13.7706 25.6528 12.4688 25.4166V15.0937C12.4693 14.9199 12.5386 14.7532 12.6615 14.6303C12.7845 14.5073 12.9511 14.438 13.125 14.4375H15.75C15.9239 14.438 16.0905 14.5073 16.2135 14.6303C16.3364 14.7532 16.4057 14.9199 16.4062 15.0937V15.0937Z" fill="#4294FF"/>
<path d="M21.6562 11.8125V22.9294C20.5067 23.9144 19.1662 24.6516 17.7188 25.095V11.8125C17.7193 11.6386 17.7886 11.472 17.9115 11.349C18.0345 11.2261 18.2011 11.1568 18.375 11.1562H21C21.1739 11.1568 21.3405 11.2261 21.4635 11.349C21.5864 11.472 21.6557 11.6386 21.6562 11.8125V11.8125Z" fill="#4294FF"/>
<path d="M18.375 5.90625H16.4062C16.2322 5.90625 16.0653 5.97539 15.9422 6.09846C15.8191 6.22153 15.75 6.38845 15.75 6.5625C15.75 6.73655 15.8191 6.90347 15.9422 7.02654C16.0653 7.14961 16.2322 7.21875 16.4062 7.21875H16.773C15.2356 8.85006 11.8943 11.8125 7.875 11.8125C7.70095 11.8125 7.53403 11.8816 7.41096 12.0047C7.28789 12.1278 7.21875 12.2947 7.21875 12.4688C7.21875 12.6428 7.28789 12.8097 7.41096 12.9328C7.53403 13.0559 7.70095 13.125 7.875 13.125C12.4061 13.125 16.0353 9.93228 17.7188 8.13842V8.53125C17.7188 8.7053 17.7879 8.87222 17.911 8.99529C18.034 9.11836 18.201 9.1875 18.375 9.1875C18.549 9.1875 18.716 9.11836 18.839 8.99529C18.9621 8.87222 19.0312 8.7053 19.0312 8.53125V6.5625C19.0312 6.38845 18.9621 6.22153 18.839 6.09846C18.716 5.97539 18.549 5.90625 18.375 5.90625V5.90625Z" fill="#4294FF"/>
<path d="M11.1562 22.1878V25.095C9.70877 24.6516 8.36833 23.9144 7.21875 22.9294V22.0959C8.52245 22.2887 9.84498 22.3195 11.1562 22.1878Z" fill="#578BFF"/>
<path d="M16.4062 20.8491V25.4166C15.1044 25.6528 13.7706 25.6528 12.4688 25.4166V22.0106C13.8196 21.768 15.14 21.3785 16.4062 20.8491V20.8491Z" fill="#578BFF"/>
<path d="M21.6562 17.8041V22.9294C20.5067 23.9144 19.1662 24.6516 17.7188 25.095V20.2453C19.1014 19.5505 20.4191 18.7335 21.6562 17.8041V17.8041Z" fill="#578BFF"/>
</svg>
