<svg width="28" height="36" viewBox="0 0 28 36" fill="none" xmlns="http://www.w3.org/2000/svg">
<path d="M27.7813 27.3056V35.0625C27.7808 35.2364 27.7115 35.403 27.5885 35.526C27.4656 35.649 27.2989 35.7183 27.125 35.7188H0.87503C0.701136 35.7183 0.534508 35.649 0.411546 35.526C0.288584 35.403 0.219282 35.2364 0.21878 35.0625V27.3056C0.214907 25.9642 0.586567 24.6484 1.29171 23.5072C1.99685 22.3659 3.00732 21.4449 4.20878 20.8481L7.14222 19.3847H20.8578L23.7913 20.8481C24.9927 21.4449 26.0032 22.3659 26.7084 23.5072C27.4135 24.6484 27.7852 25.9642 27.7813 27.3056V27.3056Z" fill="#E6ECFF"/>
<path d="M16.9126 14.7188H11.0884C10.7259 14.7188 10.4321 15.0126 10.4321 15.375V20.625C10.4321 20.9874 10.7259 21.2812 11.0884 21.2812H16.9126C17.275 21.2812 17.5688 20.9874 17.5688 20.625V15.375C17.5688 15.0126 17.275 14.7188 16.9126 14.7188Z" fill="#C8D5F8"/>
<path d="M20.9562 6.78609C20.8379 5.0218 20.0536 3.36838 18.7622 2.16059C17.4707 0.952799 15.7685 0.280884 14.0002 0.280884C12.232 0.280884 10.5298 0.952799 9.23832 2.16059C7.94684 3.36838 7.16255 5.0218 7.04425 6.78609L6.84817 9.7064C6.83991 9.82893 6.8662 9.95132 6.92405 10.0597C6.9819 10.168 7.06899 10.2579 7.17541 10.3192C7.28183 10.3805 7.40332 10.4107 7.52605 10.4064C7.64878 10.402 7.76784 10.3634 7.86968 10.2947C8.03278 10.1845 8.22502 10.1254 8.42185 10.125H8.74998C10.3528 10.125 11.2397 8.84651 11.6711 7.92494C13.9083 9.42613 16.5567 10.1949 19.25 10.125H19.5781C19.775 10.1254 19.9674 10.1846 20.1305 10.2949C20.2324 10.3635 20.3514 10.4022 20.4742 10.4065C20.5969 10.4108 20.7184 10.3806 20.8248 10.3193C20.9312 10.258 21.0183 10.1681 21.0762 10.0598C21.134 9.95145 21.1603 9.82906 21.1521 9.70653L20.9562 6.78609Z" fill="#578BFF"/>
<path d="M9.40625 8.8125H8.42188C7.81271 8.8125 7.22849 9.05449 6.79774 9.48524C6.36699 9.91599 6.125 10.5002 6.125 11.1094C6.125 11.7185 6.36699 12.3028 6.79774 12.7335C7.22849 13.1643 7.81271 13.4062 8.42188 13.4062H9.40625C9.5803 13.4062 9.74722 13.3371 9.87029 13.214C9.99336 13.091 10.0625 12.924 10.0625 12.75V9.46875C10.0625 9.2947 9.99336 9.12778 9.87029 9.00471C9.74722 8.88164 9.5803 8.8125 9.40625 8.8125Z" fill="#C8D5F8"/>
<path d="M19.5781 8.8125H18.5938C18.4197 8.8125 18.2528 8.88164 18.1297 9.00471C18.0066 9.12778 17.9375 9.2947 17.9375 9.46875V12.75C17.9375 12.924 18.0066 13.091 18.1297 13.214C18.2528 13.3371 18.4197 13.4062 18.5938 13.4062H19.5781C20.1873 13.4062 20.7715 13.1643 21.2023 12.7335C21.633 12.3028 21.875 11.7185 21.875 11.1094C21.875 10.5002 21.633 9.91599 21.2023 9.48524C20.7715 9.05449 20.1873 8.8125 19.5781 8.8125V8.8125Z" fill="#C8D5F8"/>
<path d="M11.0263 6.68542C11.0402 6.69855 10.0793 8.84357 8.74998 8.81168V11.9085C8.73208 13.2622 9.22582 14.5729 10.1325 15.5784C11.0392 16.5839 12.2919 17.2101 13.6404 17.3318C14.3583 17.3803 15.0784 17.2808 15.7563 17.0396C16.4342 16.7984 17.0553 16.4205 17.5812 15.9294C18.1071 15.4384 18.5266 14.8445 18.8137 14.1847C19.1007 13.5249 19.2492 12.8132 19.25 12.0937V8.81515C16.3731 8.80987 13.5442 8.07726 11.0263 6.68542V6.68542Z" fill="#E6ECFF"/>
<path d="M17.2812 35.7188L15.3125 25.2188L16.4084 22.4822L14 21.2812L11.5916 22.4822L12.6875 25.2188L10.7188 35.7188H17.2812Z" fill="#4294FF"/>
<path d="M16.4087 22.4822L15.3127 25.2188H12.6877L11.5918 22.4822L14.0002 21.2812L16.4087 22.4822Z" fill="#4294FF"/>
<path d="M6.125 28.5V35.7188H4.8125V28.5C4.8125 28.326 4.88164 28.159 5.00471 28.036C5.12778 27.9129 5.2947 27.8438 5.46875 27.8438C5.6428 27.8438 5.80972 27.9129 5.93279 28.036C6.05586 28.159 6.125 28.326 6.125 28.5Z" fill="#E6ECFF"/>
<path d="M23.1875 28.5V35.7188H21.875V28.5C21.875 28.326 21.9441 28.159 22.0672 28.036C22.1903 27.9129 22.3572 27.8438 22.5312 27.8438C22.7053 27.8438 22.8722 27.9129 22.9953 28.036C23.1184 28.159 23.1875 28.326 23.1875 28.5Z" fill="#E6ECFF"/>
<path d="M14 21.2813L16.9643 23.567L20.8558 19.3814L17.778 17.5688L14 21.2813Z" fill="#E6ECFF"/>
<path d="M13.9999 21.2813L11.0356 23.567L7.14404 19.3814L10.2219 17.5688L13.9999 21.2813Z" fill="#E6ECFF"/>
</svg>
