<svg width="13" height="13" viewBox="0 0 13 13" fill="none" xmlns="http://www.w3.org/2000/svg">
<g clip-path="url(#clip0_1487_3983)">
<path d="M6.50014 13.0044L6.12097 12.6794C5.59826 12.2417 1.03418 8.29998 1.03418 5.41669C1.03418 3.96702 1.61006 2.57674 2.63512 1.55167C3.66019 0.526605 5.05048 -0.0492706 6.50014 -0.0492706C7.9498 -0.0492706 9.34009 0.526605 10.3652 1.55167C11.3902 2.57674 11.9661 3.96702 11.9661 5.41669C11.9661 8.29998 7.40201 12.2417 6.88147 12.6815L6.50014 13.0044ZM6.50014 1.13265C5.36434 1.13394 4.27542 1.5857 3.47229 2.38884C2.66915 3.19197 2.21739 4.28088 2.2161 5.41669C2.2161 7.22802 5.0241 10.1216 6.50014 11.446C7.97618 10.1211 10.7842 7.22585 10.7842 5.41669C10.7829 4.28088 10.3311 3.19197 9.52799 2.38884C8.72485 1.5857 7.63594 1.13394 6.50014 1.13265Z" fill="#A0ABB8"/>
<path d="M6.50016 7.58338C6.07164 7.58338 5.65274 7.45631 5.29643 7.21823C4.94012 6.98015 4.66241 6.64177 4.49842 6.24586C4.33443 5.84995 4.29153 5.41431 4.37513 4.99402C4.45873 4.57373 4.66509 4.18766 4.9681 3.88465C5.27111 3.58163 5.65718 3.37528 6.07747 3.29168C6.49776 3.20808 6.93341 3.25098 7.32931 3.41497C7.72522 3.57896 8.06361 3.85667 8.30168 4.21298C8.53976 4.56928 8.66683 4.98819 8.66683 5.41671C8.66683 5.99135 8.43856 6.54245 8.03223 6.94878C7.6259 7.35511 7.0748 7.58338 6.50016 7.58338ZM6.50016 4.33338C6.2859 4.33338 6.07645 4.39692 5.8983 4.51595C5.72014 4.63499 5.58129 4.80419 5.49929 5.00214C5.4173 5.20009 5.39585 5.41792 5.43765 5.62806C5.47945 5.83821 5.58262 6.03124 5.73413 6.18275C5.88564 6.33425 6.07867 6.43743 6.28882 6.47923C6.49896 6.52103 6.71678 6.49958 6.91474 6.41758C7.11269 6.33559 7.28188 6.19673 7.40092 6.01858C7.51996 5.84043 7.5835 5.63098 7.5835 5.41671C7.5835 5.1294 7.46936 4.85385 7.2662 4.65068C7.06303 4.44752 6.78748 4.33338 6.50016 4.33338Z" fill="#A0ABB8"/>
</g>
<defs>
<clipPath id="clip0_1487_3983">
<rect width="13" height="13" fill="white"/>
</clipPath>
</defs>
</svg>
