<svg width="127" height="21" viewBox="0 0 127 21" fill="none" xmlns="http://www.w3.org/2000/svg">
<g opacity="0.3" clip-path="url(#clip0_1_859)">
<path fill-rule="evenodd" clip-rule="evenodd" d="M0.74707 20.0521L5.12042 0.357788H12.931L13.2883 11.3626L18.5477 0.357788H26.3726L21.9778 20.0521H16.311L18.6549 9.46178L13.3812 20.0521H9.30796L9.10073 9.46178L6.47101 20.0521H0.74707Z" fill="#05264E"/>
<path fill-rule="evenodd" clip-rule="evenodd" d="M27.0513 3.56634H32.325L33.0396 0.357788H27.7444L27.0513 3.56634Z" fill="#05264E"/>
<path fill-rule="evenodd" clip-rule="evenodd" d="M28.6662 20.0736L23.3496 20.0521L26.601 5.46716H31.9105L28.6662 20.0736Z" fill="#05264E"/>
<path fill-rule="evenodd" clip-rule="evenodd" d="M48.7895 5.46715H53.5415L53.1271 7.26794C53.762 6.48976 54.612 5.91566 55.571 5.61722C56.3698 5.34805 57.2077 5.21284 58.0507 5.21704L56.8287 9.96913C56.5286 9.96913 52.8484 9.25453 51.705 14.8713L50.5188 20.0736H45.5166L48.7895 5.46715Z" fill="#05264E"/>
<path fill-rule="evenodd" clip-rule="evenodd" d="M46.0101 14.6498C46.0101 14.7641 44.3451 20.6238 36.999 20.4738C27.1875 20.2808 29.7172 4.50963 40.8864 5.06701C47.232 5.38858 46.9176 10.6623 46.8604 10.891H41.3795C41.4509 10.6838 41.6367 8.50423 39.8931 8.54711C36.6417 8.64001 34.3335 16.6935 37.9065 16.7936C39.5572 16.8507 40.329 14.9356 40.4791 14.6927L46.0101 14.6498Z" fill="#05264E"/>
<path fill-rule="evenodd" clip-rule="evenodd" d="M93.1157 20.5381C82.4325 20.0879 85.6481 4.35954 96.6101 4.88119C106.915 5.38856 103.992 20.974 93.1157 20.5381ZM96.2528 8.31841C92.6798 7.60381 90.0572 16.129 93.4373 16.8221C97.1961 17.6153 99.7115 9.01157 96.2528 8.31841V8.31841Z" fill="#05264E"/>
<path fill-rule="evenodd" clip-rule="evenodd" d="M113.132 3.30906C111.667 3.30906 111.388 3.86644 111.145 4.97407L111.045 5.46714H114.146L114.918 1.93703H119.763L119.006 5.46714H121.514L120.799 8.82576H118.305L116.933 15.2571C116.821 15.6033 116.801 15.9729 116.876 16.329C117.083 16.9079 119.17 16.6649 119.17 16.6649L118.363 20.0092C118.363 20.0092 114.118 20.4952 112.689 19.5019C112.053 19.066 111.359 18.1656 111.788 16.229L113.425 8.87578H110.516L108.058 20.1021H102.834L105.278 8.87578H102.591L103.342 5.51717H105.95C106.422 3.63777 106.836 2.35864 108.001 1.38678C109.594 0.0862148 113.718 0.59358 113.718 0.59358L113.132 3.35908V3.30906Z" fill="#05264E"/>
<path fill-rule="evenodd" clip-rule="evenodd" d="M66.2688 15.0571H76.1875C76.1875 15.0571 75.3371 17.2509 78.4527 17.2724C80.5965 17.2724 81.4612 14.807 78.5528 14.2996C77.2165 14.0567 72.0571 13.192 72.6359 9.21169C73.1218 5.94598 76.5233 4.80262 80.2392 4.85979C87.8426 4.95268 86.4134 9.41893 86.5134 9.71906H81.4398C81.4398 9.71906 81.9829 7.84681 79.6962 7.84681C77.6095 7.84681 77.1022 9.71906 79.5104 10.2264C82.4331 10.8696 85.7988 11.0196 85.9846 14.7927C86.0418 15.8432 85.4201 20.7596 77.7596 20.6095C70.7422 20.4595 70.2492 17.158 70.4421 15.6074C69.6188 17.1848 68.3557 18.4896 66.8057 19.3635C65.2557 20.2374 63.4855 20.643 61.7097 20.5309C50.9907 20.1879 54.2707 4.36671 65.2184 4.90981C70.2206 5.15277 72.0928 8.92585 71.4926 12.6418C71.3997 13.2992 71.3425 13.3921 71.1495 13.4493L66.2688 15.0643V15.0571ZM64.8396 8.29701C61.3167 7.60385 58.6869 16.079 62.0456 16.7936C65.7615 17.5582 68.2626 8.98302 64.8253 8.28272L64.8396 8.29701Z" fill="#05264E"/>
<path fill-rule="evenodd" clip-rule="evenodd" d="M124.437 5.44574C124.938 5.44574 125.418 5.6445 125.771 5.99829C126.125 6.35209 126.324 6.83194 126.324 7.33228C126.324 7.83262 126.125 8.31247 125.771 8.66627C125.418 9.02006 124.938 9.21882 124.437 9.21882C123.937 9.21882 123.457 9.02006 123.103 8.66627C122.75 8.31247 122.551 7.83262 122.551 7.33228C122.551 6.83194 122.75 6.35209 123.103 5.99829C123.457 5.6445 123.937 5.44574 124.437 5.44574V5.44574ZM124.437 5.7816C124.226 5.76722 124.015 5.79637 123.815 5.86724C123.616 5.93812 123.433 6.04921 123.279 6.19362C123.124 6.33803 123.001 6.51267 122.917 6.7067C122.832 6.90074 122.789 7.11002 122.789 7.32156C122.789 7.5331 122.832 7.74239 122.917 7.93642C123.001 8.13046 123.124 8.3051 123.279 8.4495C123.433 8.59391 123.616 8.705 123.815 8.77588C124.015 8.84676 124.226 8.87591 124.437 8.86152C124.648 8.87591 124.86 8.84676 125.059 8.77588C125.259 8.705 125.441 8.59391 125.596 8.4495C125.751 8.3051 125.874 8.13046 125.958 7.93642C126.042 7.74239 126.086 7.5331 126.086 7.32156C126.086 7.11002 126.042 6.90074 125.958 6.7067C125.874 6.51267 125.751 6.33803 125.596 6.19362C125.441 6.04921 125.259 5.93812 125.059 5.86724C124.86 5.79637 124.648 5.76722 124.437 5.7816V5.7816ZM124.773 7.54666L125.152 8.26126H124.702L124.402 7.54666H124.137L124.023 8.35416H123.658L123.973 6.34613H124.895C125.032 6.38151 125.153 6.46215 125.239 6.57498C125.324 6.68781 125.369 6.82624 125.366 6.96784C125.368 7.04316 125.355 7.11811 125.328 7.18826C125.3 7.25842 125.259 7.32235 125.206 7.37629C125.153 7.43024 125.091 7.4731 125.021 7.50236C124.952 7.53162 124.877 7.54668 124.802 7.54666H124.773ZM124.68 6.61054H124.302L124.209 7.26797H124.587C124.636 7.27718 124.686 7.27593 124.734 7.26431C124.783 7.25269 124.828 7.23096 124.867 7.20056C124.906 7.17016 124.939 7.13178 124.962 7.08796C124.985 7.04414 124.999 6.99589 125.002 6.9464C125.004 6.90298 124.997 6.85962 124.982 6.81894C124.966 6.77827 124.943 6.74111 124.913 6.70972C124.883 6.67833 124.847 6.65335 124.807 6.63631C124.767 6.61926 124.724 6.61049 124.68 6.61054V6.61054Z" fill="#05264E"/>
</g>
<defs>
<clipPath id="clip0_1_859">
<rect width="125.591" height="20.2446" fill="white" transform="translate(0.74707 0.357788)"/>
</clipPath>
</defs>
</svg>
