<svg width="125" height="21" viewBox="0 0 125 21" fill="none" xmlns="http://www.w3.org/2000/svg">
<g opacity="0.3" clip-path="url(#clip0_1_862)">
<path fill-rule="evenodd" clip-rule="evenodd" d="M22.6576 15.4672L22.6845 0.640461L28.4591 0.62027L28.486 20.3735H18.431L6.36368 5.46605L6.33676 20.3197L0.535287 20.3735L0.481445 0.640461L0.562208 0.62027H10.6172L22.6576 15.4672Z" fill="#05264E"/>
<path fill-rule="evenodd" clip-rule="evenodd" d="M93.3184 0.640446L93.3588 20.3735H87.1938V0.667367L87.2477 0.613525C89.2668 0.613525 91.2858 0.613525 93.3049 0.613525L93.3184 0.640446Z" fill="#05264E"/>
<path fill-rule="evenodd" clip-rule="evenodd" d="M65.6977 10.157L65.7246 10.184L66.4717 9.56478L76.3517 0.640472H84.5492L73.2558 10.2109L73.2827 10.3118L85.9962 20.3197L77.0449 20.3736L65.7516 10.258L65.6977 10.3388V20.3736H59.5396V0.640472H65.6977V10.157Z" fill="#05264E"/>
<path fill-rule="evenodd" clip-rule="evenodd" d="M49.9153 0.41163C52.4728 0.512584 55.2322 0.6943 56.5984 3.21814C56.9115 3.94108 57.0542 4.72629 57.0157 5.51316V16.2412C56.9412 16.9568 56.69 17.6426 56.2847 18.2371C55.8794 18.8315 55.3327 19.3159 54.6937 19.6467C52.0016 20.811 48.7644 20.5216 45.6416 20.6024C41.9534 20.5485 38.1643 20.7841 34.7318 20.1649C33.9266 20.0301 33.172 19.6826 32.5461 19.1584C31.9202 18.6343 31.4456 17.9524 31.1715 17.1834L30.9629 15.945L31.0167 4.57092C31.0638 3.12392 32.3628 1.87882 33.5406 1.2058C35.526 0.357788 37.9287 0.458742 40.2237 0.357788L49.9153 0.41163ZM37.8008 5.28433C37.2893 5.38528 36.6432 5.59392 36.5625 6.18618C36.5625 9.1273 36.4884 12.1155 36.6163 15.0297C36.798 15.521 37.3364 15.4739 37.7268 15.5951H48.8653C49.821 15.521 50.9517 15.7499 51.47 14.8009V6.46885L51.3892 5.79583C51.2344 5.4122 50.8508 5.35836 50.5143 5.25741H37.7739L37.8008 5.28433Z" fill="#05264E"/>
<path fill-rule="evenodd" clip-rule="evenodd" d="M124.11 20.2928V20.3736H117.299C116.686 19.2361 116.067 18.1526 115.495 17.0084L115.367 16.9613H103.253L101.395 20.3264L94.5103 20.3803L105.386 0.640472H113.355L124.123 20.2928H124.11ZM109.303 5.59394L105.541 12.6338H113.126C111.861 10.2849 110.596 7.9226 109.33 5.59394H109.303Z" fill="#05264E"/>
</g>
<defs>
<clipPath id="clip0_1_862">
<rect width="123.628" height="20.2446" fill="white" transform="translate(0.481445 0.357788)"/>
</clipPath>
</defs>
</svg>
