<svg width="24" height="25" viewBox="0 0 24 25" fill="none" xmlns="http://www.w3.org/2000/svg">
<path d="M15.0876 17.4333H20.0211L18.6348 16.047C18.4486 15.8608 18.301 15.6398 18.2002 15.3965C18.0995 15.1532 18.0477 14.8924 18.0477 14.6291V11.5131C18.0479 10.2886 17.6684 9.09407 16.9616 8.09409C16.2548 7.09412 15.2553 6.33784 14.1009 5.92938V5.59291C14.1009 5.06953 13.893 4.56759 13.5229 4.1975C13.1528 3.82742 12.6509 3.61951 12.1275 3.61951C11.6041 3.61951 11.1022 3.82742 10.7321 4.1975C10.362 4.56759 10.1541 5.06953 10.1541 5.59291V5.92938C7.85508 6.74242 6.20729 8.93586 6.20729 11.5131V14.6301C6.20729 15.161 5.99614 15.6711 5.6202 16.047L4.23389 17.4333H9.1674M15.0876 17.4333V18.42C15.0876 19.2051 14.7757 19.958 14.2206 20.5132C13.6655 21.0683 12.9126 21.3801 12.1275 21.3801C11.3424 21.3801 10.5895 21.0683 10.0344 20.5132C9.47926 19.958 9.1674 19.2051 9.1674 18.42V17.4333M15.0876 17.4333H9.1674" stroke="#66789C" stroke-width="1.9734" stroke-linecap="round" stroke-linejoin="round"/>
</svg>
