<svg width="38" height="38" viewBox="0 0 38 38" fill="none" xmlns="http://www.w3.org/2000/svg">
<path d="M37.375 15.22V33.4375C37.372 34.4808 36.9561 35.4806 36.2184 36.2184C35.4806 36.9561 34.4809 37.3719 33.4375 37.375H4.5625C3.51915 37.3719 2.5194 36.9561 1.78163 36.2184C1.04387 35.4806 0.628048 34.4808 0.625001 33.4375V15.22C0.624653 14.5477 0.795588 13.8865 1.12168 13.2986C1.44776 12.7107 1.91825 12.2156 2.48875 11.86L6.57063 9.69436C6.76995 9.58492 6.99446 9.52956 7.22181 9.5338C7.44917 9.53803 7.67146 9.60172 7.86657 9.71852C8.06168 9.83532 8.22281 10.0012 8.33394 10.1996C8.44506 10.3979 8.50232 10.622 8.5 10.8494V18.4094L16.3356 22.6356L19 24.0662L21.6644 22.6356L29.5 18.4094V10.8494C29.4977 10.622 29.5549 10.3979 29.6661 10.1996C29.7772 10.0012 29.9383 9.83532 30.1334 9.71852C30.3285 9.60172 30.5508 9.53803 30.7782 9.5338C31.0055 9.52956 31.23 9.58492 31.4294 9.69436L35.4325 11.8206C36.0224 12.1711 36.5114 12.6685 36.8518 13.2643C37.1922 13.86 37.3725 14.5338 37.375 15.22V15.22Z" fill="#4294FF"/>
<path d="M37.375 15.22V17.1625L19.6169 26.7175C19.4277 26.8209 19.2156 26.8751 19 26.8751C18.7844 26.8751 18.5723 26.8209 18.3831 26.7175L0.625001 17.1625V15.22C0.624653 14.5477 0.795588 13.8865 1.12168 13.2986C1.44776 12.7107 1.91825 12.2156 2.48875 11.86L6.57063 9.69436C6.76995 9.58492 6.99446 9.52956 7.22181 9.5338C7.44917 9.53803 7.67146 9.60172 7.86657 9.71852C8.06168 9.83532 8.22281 10.0012 8.33394 10.1996C8.44506 10.3979 8.50232 10.622 8.5 10.8494V18.4094L19 24.0662L29.5 18.4094V10.8494C29.4977 10.622 29.5549 10.3979 29.6661 10.1996C29.7772 10.0012 29.9383 9.83532 30.1334 9.71852C30.3285 9.60172 30.5508 9.53803 30.7782 9.5338C31.0055 9.52956 31.23 9.58492 31.4294 9.69436L35.4325 11.8206C36.0224 12.1711 36.5114 12.6685 36.8518 13.2643C37.1922 13.86 37.3725 14.5338 37.375 15.22V15.22Z" fill="#4294FF"/>
<path d="M31.8494 37.3749H4.56252C3.51916 37.3719 2.51941 36.9561 1.78165 36.2183C1.04388 35.4805 0.628062 34.4808 0.625015 33.4374V15.2199C0.623347 14.6162 0.76105 14.0202 1.0274 13.4784C1.29375 12.9366 1.68156 12.4636 2.16064 12.0962C3.31564 20.6274 8.72314 35.1437 31.8494 37.3749Z" fill="#578BFF"/>
<path d="M37.375 32.755V33.4375C37.372 34.4809 36.9561 35.4806 36.2184 36.2184C35.4806 36.9561 34.4809 37.372 33.4375 37.375H4.5625C3.51915 37.372 2.5194 36.9561 1.78163 36.2184C1.04387 35.4806 0.628047 34.4809 0.625 33.4375V32.755L14.9575 22.7144C15.1582 22.577 15.3927 22.497 15.6356 22.4831C15.8785 22.4693 16.1205 22.522 16.3356 22.6356L19 24.0663L21.6644 22.6356C21.8795 22.522 22.1215 22.4693 22.3644 22.4831C22.6073 22.497 22.8418 22.577 23.0425 22.7144L37.375 32.755Z" fill="#4294FF"/>
<path d="M3.88002 18.9081L0.625015 17.1624V15.2199C0.623347 14.6162 0.76105 14.0202 1.0274 13.4784C1.29375 12.9366 1.68156 12.4636 2.16064 12.0962C2.4723 14.4249 3.04917 16.7104 3.88002 18.9081V18.9081Z" fill="#578BFF"/>
<path d="M31.8494 37.375H4.5625C3.51915 37.372 2.5194 36.9562 1.78163 36.2184C1.04387 35.4806 0.628047 34.4809 0.625 33.4375V32.755L8.74937 27.0719C13.1331 32.0594 20.2731 36.2594 31.8494 37.375V37.375Z" fill="#578BFF"/>
<path d="M30.8125 0.625H7.1875C6.8394 0.625 6.50556 0.763281 6.25942 1.00942C6.01328 1.25556 5.875 1.5894 5.875 1.9375V19.9803L18.3777 26.7174C18.5688 26.8208 18.7827 26.875 19 26.875C19.2173 26.875 19.4312 26.8208 19.6223 26.7174L32.125 19.9803V1.9375C32.125 1.5894 31.9867 1.25556 31.7406 1.00942C31.4944 0.763281 31.1606 0.625 30.8125 0.625V0.625Z" fill="#E6ECFF"/>
<path d="M23.5412 24.6044L19.6169 26.7175C19.4277 26.8209 19.2156 26.8751 19 26.8751C18.7844 26.8751 18.5723 26.8209 18.3831 26.7175L5.875 19.9844V1.9375C5.876 1.58971 6.01461 1.25646 6.26053 1.01053C6.50646 0.764607 6.83971 0.626004 7.1875 0.625H11.9519C12.5688 8.14563 15.2725 18.5144 23.5412 24.6044Z" fill="#C8D5F8"/>
<path d="M25.5625 8.5H12.4375C12.0894 8.5 11.7556 8.36172 11.5094 8.11558C11.2633 7.86944 11.125 7.5356 11.125 7.1875C11.125 6.8394 11.2633 6.50556 11.5094 6.25942C11.7556 6.01328 12.0894 5.875 12.4375 5.875H25.5625C25.9106 5.875 26.2444 6.01328 26.4906 6.25942C26.7367 6.50556 26.875 6.8394 26.875 7.1875C26.875 7.5356 26.7367 7.86944 26.4906 8.11558C26.2444 8.36172 25.9106 8.5 25.5625 8.5Z" fill="#4294FF"/>
<path d="M25.5625 13.75H12.4375C12.0894 13.75 11.7556 13.6117 11.5094 13.3656C11.2633 13.1194 11.125 12.7856 11.125 12.4375C11.125 12.0894 11.2633 11.7556 11.5094 11.5094C11.7556 11.2633 12.0894 11.125 12.4375 11.125H25.5625C25.9106 11.125 26.2444 11.2633 26.4906 11.5094C26.7367 11.7556 26.875 12.0894 26.875 12.4375C26.875 12.7856 26.7367 13.1194 26.4906 13.3656C26.2444 13.6117 25.9106 13.75 25.5625 13.75Z" fill="#4294FF"/>
<path d="M25.5625 19H12.4375C12.0894 19 11.7556 18.8617 11.5094 18.6156C11.2633 18.3694 11.125 18.0356 11.125 17.6875C11.125 17.3394 11.2633 17.0056 11.5094 16.7594C11.7556 16.5133 12.0894 16.375 12.4375 16.375H25.5625C25.9106 16.375 26.2444 16.5133 26.4906 16.7594C26.7367 17.0056 26.875 17.3394 26.875 17.6875C26.875 18.0356 26.7367 18.3694 26.4906 18.6156C26.2444 18.8617 25.9106 19 25.5625 19Z" fill="#4294FF"/>
<path d="M13.3037 8.5H12.4375C12.0894 8.5 11.7556 8.36172 11.5094 8.11558C11.2633 7.86944 11.125 7.5356 11.125 7.1875C11.125 6.8394 11.2633 6.50556 11.5094 6.25942C11.7556 6.01328 12.0894 5.875 12.4375 5.875H12.6869C12.8575 6.74125 13.0675 7.62062 13.3037 8.5Z" fill="#578BFF"/>
<path d="M15.1413 13.75H12.4375C12.0894 13.75 11.7556 13.6117 11.5094 13.3656C11.2633 13.1194 11.125 12.7856 11.125 12.4375C11.125 12.0894 11.2633 11.7556 11.5094 11.5094C11.7556 11.2633 12.0894 11.125 12.4375 11.125H14.1175C14.4107 12.018 14.7525 12.8943 15.1413 13.75V13.75Z" fill="#578BFF"/>
<path d="M18.0813 19H12.4375C12.0894 19 11.7556 18.8617 11.5094 18.6156C11.2633 18.3694 11.125 18.0356 11.125 17.6875C11.125 17.3394 11.2633 17.0056 11.5094 16.7594C11.7556 16.5133 12.0894 16.375 12.4375 16.375H16.4275C16.9319 17.2787 17.4839 18.1549 18.0813 19V19Z" fill="#578BFF"/>
</svg>
