<svg width="138" height="21" viewBox="0 0 138 21" fill="none" xmlns="http://www.w3.org/2000/svg">
<g opacity="0.3" clip-path="url(#clip0_1_866)">
<path fill-rule="evenodd" clip-rule="evenodd" d="M33.2866 6.15872H38.3614L38.5878 7.8295C38.9782 6.49443 41.539 5.54193 43.1005 5.54193C46.731 5.54193 48.1753 7.77485 48.1753 11.6785V20.1027H42.5462V12.5764C42.5462 11.0696 42.2651 9.95311 40.7583 9.95311C39.2515 9.95311 38.6425 11.4599 38.6425 12.5139V20.1027H33.2866V6.15872Z" fill="#05264E"/>
<path fill-rule="evenodd" clip-rule="evenodd" d="M0.433105 20.1574V0.412445H9.85663C15.4936 0.412445 18.0622 3.14503 18.0622 7.10339C18.0622 11.3428 15.72 14.2472 9.85663 14.2472H6.67902V20.1574H0.433105ZM9.19301 9.45341C10.6998 9.45341 12.316 9.11769 12.316 7.38445C12.316 5.65121 10.5827 5.21399 9.19301 5.21399H6.67902V9.45341H9.19301Z" fill="#05264E"/>
<path fill-rule="evenodd" clip-rule="evenodd" d="M95.3086 6.15872H100.446L100.61 7.8295C101.055 6.49443 103.623 5.54193 105.185 5.54193C108.753 5.54193 110.26 7.77485 110.26 11.6785V20.1574H104.623V12.5764C104.623 11.0696 104.295 9.95311 102.788 9.95311C101.445 9.95311 100.719 11.4599 100.719 12.5139V20.1574H95.3086V6.15872Z" fill="#05264E"/>
<path fill-rule="evenodd" clip-rule="evenodd" d="M69.4273 15.1372C69.4326 15.7512 69.6506 16.3445 70.0441 16.8158C70.4761 17.1535 71.0031 17.3474 71.551 17.3701C72.5503 17.3701 73.3389 17.0891 73.3389 16.1444C73.3935 13.8022 64.86 15.8633 64.86 10.2888C64.86 6.38512 67.8659 5.48727 70.9888 5.48727C74.1118 5.48727 78.4137 6.10406 78.2419 10.3435H73.5028C73.4838 9.97463 73.347 9.62161 73.1124 9.33632C72.9297 9.13468 72.705 8.97563 72.454 8.8704C72.2031 8.76517 71.9321 8.71633 71.6603 8.72734C70.7156 8.66489 69.8177 8.83665 69.8177 9.56274C69.8802 11.7332 78.6323 10.2888 78.6323 15.4183C78.6323 18.9863 76.1261 20.6024 71.2699 20.6024C68.2016 20.5477 64.3525 18.9863 64.3525 15.1372H69.4273Z" fill="#05264E"/>
<path fill-rule="evenodd" clip-rule="evenodd" d="M127.163 11.5692C127.193 11.0833 127.034 10.6045 126.718 10.2342C126.55 9.98059 126.328 9.76811 126.067 9.61262C125.806 9.45714 125.513 9.36269 125.211 9.33633C123.087 9.33633 122.533 11.4053 122.533 13.0761C122.533 15.0279 123.423 16.6441 125.094 16.6441C125.705 16.6019 126.276 16.3215 126.683 15.8631C127.091 15.4048 127.302 14.805 127.272 14.1925H132.183C132.292 17.0891 130.286 20.5478 124.875 20.5478C123.874 20.5944 122.874 20.4317 121.939 20.0701C121.005 19.7085 120.156 19.1558 119.447 18.4475C118.738 17.7393 118.184 16.8909 117.822 15.9565C117.459 15.0222 117.295 14.0226 117.341 13.0214C117.341 7.61089 121.362 5.54193 124.82 5.54193C129.505 5.54193 132.183 8.39163 132.128 11.5692H127.163Z" fill="#05264E"/>
<path fill-rule="evenodd" clip-rule="evenodd" d="M27.3218 20.1574L26.7597 18.9863C25.6719 19.9486 24.2522 20.4498 22.8013 20.3838C21.0681 20.3291 17.6719 20.1027 17.6719 16.363C17.6719 10.2342 26.8143 13.0214 26.8143 10.0077C26.8143 9.00059 25.6979 9.05524 25.0889 9.05524C23.9724 9.05524 23.2464 9.28165 23.0824 10.9524H18.3902C18.3902 8.05589 19.288 5.60437 25.4168 5.60437C31.3817 5.60437 31.9985 8.72733 31.9985 11.7956V18.1509C31.9536 18.4841 31.9852 18.8231 32.0907 19.1423C32.1962 19.4615 32.3729 19.7525 32.6074 19.9934V20.1027L27.314 20.1574H27.3218ZM26.869 13.7475C24.9718 14.6375 22.5749 14.5829 22.5203 15.9726C22.5203 16.8704 23.0199 17.3155 24.1364 17.3155C25.9789 17.3155 26.9861 15.4183 26.869 13.7475ZM58.7778 20.1574L58.2079 18.9863C57.1163 19.9422 55.6993 20.4425 54.2495 20.3838C52.4694 20.3291 49.0654 20.1027 49.0654 16.363C49.0654 10.2342 58.2079 13.0214 58.2703 10.0077C58.2703 9.00059 57.0992 9.05524 56.5371 9.05524C55.366 9.05524 54.6946 9.28165 54.5306 10.9524H49.8462C49.8462 8.05589 50.6816 5.60437 56.8728 5.60437C62.783 5.60437 63.3998 8.72733 63.3998 11.7956V18.1509C63.355 18.4841 63.3865 18.8231 63.492 19.1423C63.5975 19.4615 63.7742 19.7525 64.0088 19.9934V20.1027L58.77 20.1574H58.7778ZM58.3328 13.7475C56.4356 14.6375 53.9763 14.5829 53.9763 15.9726C53.9763 16.8704 54.4291 17.3155 55.6002 17.3155C57.3803 17.3155 58.4421 15.4183 58.3328 13.7475Z" fill="#05264E"/>
<path fill-rule="evenodd" clip-rule="evenodd" d="M116.451 20.1574V6.15869H111.298V20.1574H116.451ZM111.298 4.37079H116.482V0.357788H111.298V4.37079Z" fill="#05264E"/>
<path fill-rule="evenodd" clip-rule="evenodd" d="M86.9467 5.65903C91.5765 5.65903 94.4184 8.89129 94.4184 13.1307C94.4184 17.3701 91.5765 20.6024 86.9467 20.6024C82.3169 20.6024 79.4126 17.4248 79.4126 13.1307C79.4126 8.83664 82.3169 5.65903 86.9467 5.65903ZM84.4874 13.1307C84.4874 14.864 85.0495 16.9798 86.9467 17.0344C88.8439 17.0891 89.3436 14.864 89.3436 13.1307C89.3436 11.3975 88.8439 9.28166 86.9467 9.28166C85.0495 9.28166 84.5421 11.4599 84.4874 13.1307Z" fill="#05264E"/>
<path fill-rule="evenodd" clip-rule="evenodd" d="M135.501 17.4248C135.837 17.4248 136.336 17.4794 136.336 17.0344C136.336 16.5894 136.001 16.5894 135.727 16.5894H135.056V17.4248H135.501ZM136.618 18.7676H136.282L135.61 17.6512H135.056V18.7676H134.72V16.363H135.727C136.172 16.363 136.571 16.5035 136.571 17.0344C136.571 17.5653 136.282 17.6512 135.837 17.6512L136.563 18.7676H136.618ZM137.398 17.6199C137.404 17.2468 137.299 16.8802 137.096 16.5674C136.892 16.2545 136.6 16.0095 136.256 15.8638C135.912 15.7181 135.533 15.6784 135.167 15.7497C134.8 15.821 134.464 16.0001 134.2 16.264C133.936 16.5279 133.757 16.8647 133.685 17.231C133.614 17.5974 133.654 17.9767 133.8 18.3203C133.945 18.664 134.19 18.9563 134.503 19.1597C134.816 19.3632 135.183 19.4687 135.556 19.4625C136.042 19.4545 136.506 19.2578 136.85 18.9139C137.194 18.5701 137.39 18.1061 137.398 17.6199ZM133.409 17.6199C133.403 17.1973 133.523 16.7825 133.754 16.4285C133.984 16.0746 134.316 15.7976 134.705 15.633C135.094 15.4684 135.524 15.4237 135.939 15.5046C136.354 15.5856 136.735 15.7885 137.034 16.0873C137.333 16.3862 137.535 16.7674 137.616 17.1823C137.697 17.5971 137.653 18.0266 137.488 18.4159C137.323 18.8052 137.046 19.1365 136.692 19.3675C136.339 19.5984 135.924 19.7185 135.501 19.7123C134.94 19.7123 134.402 19.4894 134.005 19.0926C133.608 18.6958 133.385 18.1577 133.385 17.5965L133.409 17.6199Z" fill="#05264E"/>
</g>
<defs>
<clipPath id="clip0_1_866">
<rect width="137.215" height="20.2446" fill="white" transform="translate(0.433105 0.357788)"/>
</clipPath>
</defs>
</svg>
