<svg width="117" height="21" viewBox="0 0 117 21" fill="none" xmlns="http://www.w3.org/2000/svg">
<g opacity="0.3" clip-path="url(#clip0_1_860)">
<path fill-rule="evenodd" clip-rule="evenodd" d="M115.14 16.7061C114.79 16.7061 114.448 16.8099 114.157 17.0045C113.866 17.1991 113.64 17.4756 113.506 17.7991C113.372 18.1225 113.338 18.4784 113.407 18.8216C113.475 19.1647 113.644 19.4798 113.892 19.7268C114.14 19.9739 114.456 20.1418 114.799 20.2093C115.143 20.2768 115.498 20.2409 115.821 20.1061C116.144 19.9714 116.42 19.7438 116.614 19.4522C116.807 19.1606 116.91 18.8181 116.909 18.4681C116.907 18.0002 116.72 17.5521 116.388 17.2218C116.057 16.8915 115.608 16.7061 115.14 16.7061ZM115.14 20.0316C114.832 20.0328 114.531 19.9427 114.274 19.7726C114.017 19.6025 113.817 19.3601 113.698 19.076C113.579 18.7919 113.547 18.4789 113.606 18.1766C113.664 17.8743 113.812 17.5962 114.029 17.3776C114.245 17.1589 114.522 17.0095 114.824 16.9482C115.126 16.8869 115.439 16.9165 115.724 17.0332C116.009 17.1499 116.253 17.3486 116.425 17.604C116.598 17.8594 116.69 18.1601 116.691 18.4681C116.692 18.6726 116.653 18.8753 116.575 19.0645C116.498 19.2538 116.384 19.4259 116.24 19.5711C116.096 19.7163 115.924 19.8317 115.736 19.9107C115.547 19.9897 115.345 20.0308 115.14 20.0316Z" fill="#05264E"/>
<path fill-rule="evenodd" clip-rule="evenodd" d="M116.053 18.009C116.056 17.9243 116.037 17.8402 115.998 17.7651C115.959 17.6899 115.901 17.6264 115.829 17.5809C115.68 17.5048 115.513 17.4705 115.345 17.4816H114.483V19.4608H114.725V18.5487H115.172L115.736 19.4608H116.022L115.401 18.5487C115.755 18.5487 116.022 18.3936 116.022 18.009H116.053ZM115.097 18.3564H114.725V17.6615H115.289C115.538 17.6615 115.804 17.6987 115.804 18.0028C115.804 18.406 115.376 18.3564 115.097 18.3564Z" fill="#05264E"/>
<path fill-rule="evenodd" clip-rule="evenodd" d="M104.773 8.42333L108.39 4.55806C108.552 4.38639 108.66 4.17052 108.7 3.93763C108.7 3.65224 108.458 3.54056 107.695 3.54056H106.777V1.09607H116.66V3.53435H115.357C113.862 3.53435 113.583 3.76391 111.492 6.40073L105.766 12.605V16.371C105.766 17.3389 106.256 17.6801 107.627 17.6801H109.786V20.0315H95.9504V17.6553H98.1095C99.5054 17.6553 99.9708 17.3141 99.9708 16.3462V12.5802L93.2763 5.12265C92.1658 3.81975 92.3209 3.53435 89.2188 3.53435V1.09607H101.733V3.53435H100.839C99.9335 3.53435 99.5489 3.70807 99.5489 4.04311C99.5489 4.37814 99.8281 4.55806 100.002 4.78141L103.414 8.50399C103.494 8.61138 103.599 8.69776 103.719 8.75567C103.84 8.81357 103.973 8.84128 104.107 8.8364C104.24 8.83151 104.371 8.79418 104.487 8.72763C104.603 8.66107 104.701 8.56729 104.773 8.45435V8.42333Z" fill="#05264E"/>
<path fill-rule="evenodd" clip-rule="evenodd" d="M20.8165 1.0961H23.838V7.92081H21.0461C20.7979 6.55587 19.9479 6.02851 19.1848 5.31501C17.7826 4.03073 14.7549 2.95739 12.205 2.95739C8.89809 2.93877 6.11857 3.96248 6.11857 5.46392C6.11857 9.62699 24.9486 6.3139 24.9486 14.1933C24.9486 18.3068 20.9158 20.6024 13.6692 20.6024C10.7179 20.5458 7.81064 19.876 5.13209 18.6356C4.43101 18.2261 4.1332 19.0141 4.00291 20.0068H0.900767V12.9773H3.7051C4.31933 14.7579 5.17552 15.1302 5.95726 15.8685C7.30979 17.1094 10.5422 18.0214 13.5079 17.9966C17.975 17.9531 19.5136 16.9729 19.5136 15.5583C19.5136 14.1437 17.9936 13.8025 13.0984 13.0331L8.94152 12.3569C4.24488 11.6124 0.83252 10.5638 0.83252 6.82266C0.83252 2.93877 5.17552 0.500488 12.0002 0.500488C14.8604 0.500488 17.2739 0.885154 19.5819 2.21908C20.2023 2.63476 20.8227 2.6844 20.8227 1.12092L20.8165 1.0961Z" fill="#05264E"/>
<path fill-rule="evenodd" clip-rule="evenodd" d="M79.7201 12.4872L79.7822 4.92415C79.7822 3.93146 79.2672 3.59022 77.7906 3.59022H76.0596V1.2388H87.0722V3.59022H85.6452C84.1686 3.59022 83.6536 3.93146 83.6536 4.92415V20.1495L79.3106 20.1122L65.3572 6.8847V16.4889C65.3572 17.4568 65.8722 17.8229 67.3488 17.8229H69.2659V20.1495H57.8252V17.8229H59.7237C61.1941 17.8229 61.7153 17.4568 61.7153 16.4889V4.92415C61.7153 3.93146 61.1941 3.59022 59.7237 3.59022H57.8252V1.2388H67.7521L79.7449 12.4872H79.7201Z" fill="#05264E"/>
<path fill-rule="evenodd" clip-rule="evenodd" d="M42.7923 0.357788C34.007 0.357788 28.5225 4.24167 28.5225 10.477C28.5225 16.6006 33.9512 20.4597 42.5441 20.4597C51.6707 20.4597 56.9815 16.6564 56.9815 10.1668C56.9629 4.32853 51.2363 0.357788 42.7923 0.357788ZM42.5938 17.9904C37.7296 17.9904 34.9563 15.186 34.9563 10.3343C34.9563 5.60041 37.8537 2.79607 42.8357 2.79607C47.6192 2.79607 50.4174 5.66245 50.4174 10.5328C50.4174 15.2977 47.5758 17.978 42.5938 17.978V17.9904Z" fill="#05264E"/>
</g>
<defs>
<clipPath id="clip0_1_860">
<rect width="116.076" height="20.2446" fill="white" transform="translate(0.83252 0.357788)"/>
</clipPath>
</defs>
</svg>
