<svg width="12" height="12" viewBox="0 0 12 12" fill="none" xmlns="http://www.w3.org/2000/svg">
<g clip-path="url(#clip0_1487_3733)">
<path d="M11.9687 4.60325C11.8902 4.36026 11.6746 4.18768 11.4197 4.1647L7.95614 3.8502L6.58656 0.644587C6.48558 0.409657 6.25559 0.257584 6.00006 0.257584C5.74453 0.257584 5.51454 0.409657 5.41356 0.645136L4.04399 3.8502L0.579908 4.1647C0.325385 4.18823 0.110414 4.36026 0.0314019 4.60325C-0.0476102 4.84623 0.0253592 5.11275 0.2179 5.28075L2.83592 7.57677L2.06392 10.9774C2.00744 11.2274 2.10448 11.4859 2.31195 11.6359C2.42346 11.7164 2.55393 11.7575 2.68549 11.7575C2.79893 11.7575 2.91145 11.7269 3.01244 11.6664L6.00006 9.88085L8.98659 11.6664C9.20513 11.7979 9.48062 11.7859 9.68762 11.6359C9.89518 11.4854 9.99214 11.2269 9.93565 10.9774L9.16366 7.57677L11.7817 5.28121C11.9742 5.11275 12.0477 4.84669 11.9687 4.60325Z" fill="#A0ABB8"/>
</g>
<defs>
<clipPath id="clip0_1487_3733">
<rect width="12" height="12" fill="white"/>
</clipPath>
</defs>
</svg>
