<svg width="88" height="21" viewBox="0 0 88 21" fill="none" xmlns="http://www.w3.org/2000/svg">
<g opacity="0.3" clip-path="url(#clip0_1_867)">
<path fill-rule="evenodd" clip-rule="evenodd" d="M67.083 10.4894C67.083 12.484 67.6745 14.4338 68.7826 16.0923C69.8908 17.7508 71.4659 19.0434 73.3087 19.8067C75.1515 20.57 77.1792 20.7698 79.1355 20.3806C81.0919 19.9915 82.8888 19.031 84.2992 17.6206C85.7097 16.2102 86.6702 14.4132 87.0593 12.4569C87.4484 10.5006 87.2487 8.47279 86.4854 6.62999C85.7221 4.78719 84.4295 3.21212 82.771 2.10396C81.1125 0.995805 79.1627 0.404327 77.168 0.404327C74.4941 0.406793 71.9303 1.47011 70.0396 3.36089C68.1488 5.25167 67.0855 7.81541 67.083 10.4894ZM70.8358 10.4894C70.8358 9.23697 71.2072 8.01269 71.903 6.97136C72.5988 5.93003 73.5877 5.11841 74.7448 4.63913C75.9019 4.15986 77.1751 4.03446 78.4034 4.27879C79.6317 4.52312 80.76 5.12621 81.6456 6.01179C82.5312 6.89737 83.1343 8.02567 83.3786 9.25401C83.623 10.4823 83.4976 11.7556 83.0183 12.9126C82.539 14.0697 81.7274 15.0587 80.6861 15.7544C79.6447 16.4502 78.4204 16.8216 77.168 16.8216C75.489 16.8204 73.8791 16.1528 72.6918 14.9656C71.5046 13.7783 70.837 12.1684 70.8358 10.4894Z" fill="#05264E"/>
<path fill-rule="evenodd" clip-rule="evenodd" d="M57.5658 5.29322V20.6024H61.2906V5.08835C61.2906 4.95333 61.3139 3.94296 61.9984 3.49132L59.959 0.357788C57.9243 1.69408 57.5006 4.08264 57.5658 5.29322Z" fill="#05264E"/>
<path fill-rule="evenodd" clip-rule="evenodd" d="M24.6242 9.48369C22.4731 13.2085 20.4337 16.7658 17.5144 16.7658C14.595 16.7658 12.5603 13.2272 10.3859 9.48369C7.95546 5.21407 5.17579 0.381073 0.142578 0.381073V4.10593C3.0014 4.10593 5.01748 7.6166 7.15462 11.3275C9.62233 15.625 12.4253 20.4953 17.5144 20.4953C22.6035 20.4953 25.4064 15.6483 27.8788 11.3508C30.0113 7.62592 32.0273 4.12921 34.8908 4.12921C37.7543 4.12921 39.7657 7.63988 41.9029 11.3508C44.3752 15.6483 47.1689 20.5186 52.2626 20.5186V16.7658C49.3386 16.7658 47.3085 13.2272 45.1528 9.48369C42.699 5.21407 39.9194 0.381073 34.8908 0.381073C29.8623 0.381073 27.0779 5.21407 24.6475 9.48369H24.6242Z" fill="#05264E"/>
<path fill-rule="evenodd" clip-rule="evenodd" d="M37.661 14.0001C37.661 14.5526 37.4972 15.0927 37.1902 15.5521C36.8832 16.0115 36.4469 16.3696 35.9365 16.581C35.426 16.7925 34.8643 16.8478 34.3224 16.74C33.7804 16.6322 33.2827 16.3662 32.892 15.9755C32.5013 15.5848 32.2352 15.087 32.1274 14.5451C32.0196 14.0032 32.0749 13.4415 32.2864 12.931C32.4978 12.4205 32.8559 11.9842 33.3153 11.6772C33.7747 11.3703 34.3148 11.2064 34.8674 11.2064C35.6083 11.2064 36.3189 11.5008 36.8428 12.0247C37.3667 12.5486 37.661 13.2591 37.661 14.0001Z" fill="#05264E"/>
</g>
<defs>
<clipPath id="clip0_1_867">
<rect width="87.1104" height="20.2446" fill="white" transform="translate(0.142578 0.357788)"/>
</clipPath>
</defs>
</svg>
